<svg width="59" height="59" viewBox="0 0 59 59" fill="none" xmlns="http://www.w3.org/2000/svg">
<circle cx="29.5" cy="29.5" r="29" stroke="#079911"/>
<path d="M37.3334 12.3335H20.6667C16.0643 12.3335 12.3334 16.0645 12.3334 20.6668V37.3335C12.3334 41.9359 16.0643 45.6668 20.6667 45.6668H37.3334C41.9357 45.6668 45.6667 41.9359 45.6667 37.3335V20.6668C45.6667 16.0645 41.9357 12.3335 37.3334 12.3335Z" stroke="#079911" stroke-width="2" stroke-linecap="round" stroke-linejoin="round"/>
<path d="M35.6666 27.95C35.8723 29.3371 35.6354 30.7537 34.9896 31.9984C34.3437 33.243 33.3219 34.2524 32.0693 34.8828C30.8168 35.5132 29.3974 35.7327 28.0129 35.5099C26.6285 35.2871 25.3496 34.6335 24.358 33.6419C23.3665 32.6504 22.7128 31.3715 22.4901 29.987C22.2673 28.6026 22.4867 27.1832 23.1172 25.9306C23.7476 24.6781 24.7569 23.6562 26.0016 23.0104C27.2463 22.3646 28.6629 22.1277 30.05 22.3333C31.4648 22.5432 32.7747 23.2025 33.7861 24.2139C34.7975 25.2253 35.4568 26.5351 35.6666 27.95Z" stroke="#079911" stroke-width="2" stroke-linecap="round" stroke-linejoin="round"/>
<path d="M38.1666 19.8335H38.1833" stroke="#079911" stroke-width="2" stroke-linecap="round" stroke-linejoin="round"/>
</svg>
