<svg width="80" height="80" viewBox="0 0 80 80" fill="none" xmlns="http://www.w3.org/2000/svg">
<circle cx="40" cy="40" r="40" fill="#EAF5EB"/>
<path d="M59.5 35.6667C59.5 50.8334 40 63.8334 40 63.8334C40 63.8334 20.5 50.8334 20.5 35.6667C20.5 30.495 22.5545 25.5351 26.2114 21.8781C29.8684 18.2211 34.8283 16.1667 40 16.1667C45.1717 16.1667 50.1316 18.2211 53.7886 21.8781C57.4455 25.5351 59.5 30.495 59.5 35.6667Z" stroke="#079911" stroke-width="2" stroke-linecap="round" stroke-linejoin="round"/>
<path d="M40 42.1667C43.5899 42.1667 46.5 39.2565 46.5 35.6667C46.5 32.0768 43.5899 29.1667 40 29.1667C36.4101 29.1667 33.5 32.0768 33.5 35.6667C33.5 39.2565 36.4101 42.1667 40 42.1667Z" stroke="#079911" stroke-width="2" stroke-linecap="round" stroke-linejoin="round"/>
</svg>
