<svg width="154" height="29" viewBox="0 0 154 29" fill="none" xmlns="http://www.w3.org/2000/svg">
<path d="M14.5959 14.24C15.5559 14.576 16.3079 15.104 16.8519 15.824C17.3959 16.528 17.6679 17.384 17.6679 18.392C17.6679 19.864 17.0759 21 15.8919 21.8C14.7079 22.6 12.9959 23 10.7559 23H1.68391V6.2H10.2759C12.4199 6.2 14.0519 6.6 15.1719 7.4C16.2919 8.184 16.8519 9.248 16.8519 10.592C16.8519 11.392 16.6519 12.112 16.2519 12.752C15.8679 13.376 15.3159 13.872 14.5959 14.24ZM6.38791 9.632V12.872H9.65191C11.2519 12.872 12.0519 12.328 12.0519 11.24C12.0519 10.168 11.2519 9.632 9.65191 9.632H6.38791ZM10.3719 19.568C12.0359 19.568 12.8679 19 12.8679 17.864C12.8679 16.728 12.0359 16.16 10.3719 16.16H6.38791V19.568H10.3719ZM33.2092 16.52C33.2092 16.552 33.1852 16.928 33.1372 17.648H23.6812C23.8732 18.32 24.2412 18.84 24.7852 19.208C25.3452 19.56 26.0412 19.736 26.8732 19.736C27.4972 19.736 28.0332 19.648 28.4812 19.472C28.9452 19.296 29.4092 19.008 29.8732 18.608L32.2732 21.104C31.0092 22.512 29.1612 23.216 26.7292 23.216C25.2092 23.216 23.8732 22.928 22.7212 22.352C21.5692 21.776 20.6732 20.976 20.0332 19.952C19.4092 18.928 19.0972 17.768 19.0972 16.472C19.0972 15.192 19.4012 14.048 20.0092 13.04C20.6332 12.016 21.4892 11.216 22.5772 10.64C23.6652 10.064 24.8892 9.776 26.2492 9.776C27.5452 9.776 28.7212 10.048 29.7772 10.592C30.8332 11.12 31.6652 11.896 32.2732 12.92C32.8972 13.928 33.2092 15.128 33.2092 16.52ZM26.2732 13.016C25.5692 13.016 24.9772 13.216 24.4972 13.616C24.0332 14.016 23.7372 14.56 23.6092 15.248H28.9372C28.8092 14.56 28.5052 14.016 28.0252 13.616C27.5612 13.216 26.9772 13.016 26.2732 13.016ZM35.3117 5.192H39.8717V23H35.3117V5.192ZM48.3791 9.776C50.5391 9.776 52.1871 10.272 53.3231 11.264C54.4591 12.24 55.0271 13.744 55.0271 15.776V23H50.7791V21.32C50.1231 22.584 48.8431 23.216 46.9391 23.216C45.9311 23.216 45.0591 23.04 44.3231 22.688C43.5871 22.336 43.0271 21.864 42.6431 21.272C42.2751 20.664 42.0911 19.976 42.0911 19.208C42.0911 17.976 42.5631 17.024 43.5071 16.352C44.4511 15.664 45.9071 15.32 47.8751 15.32H50.4671C50.3871 13.944 49.4671 13.256 47.7071 13.256C47.0831 13.256 46.4511 13.36 45.8111 13.568C45.1711 13.76 44.6271 14.032 44.1791 14.384L42.6431 11.288C43.3631 10.808 44.2351 10.44 45.2591 10.184C46.2991 9.912 47.3391 9.776 48.3791 9.776ZM48.2111 20.336C48.7391 20.336 49.2031 20.208 49.6031 19.952C50.0031 19.696 50.2911 19.32 50.4671 18.824V17.696H48.4991C47.1711 17.696 46.5071 18.136 46.5071 19.016C46.5071 19.416 46.6591 19.736 46.9631 19.976C47.2671 20.216 47.6831 20.336 48.2111 20.336ZM57.3534 27.872C56.0254 27.872 54.9694 27.648 54.1854 27.2L55.3374 23.96C55.7534 24.216 56.2254 24.344 56.7534 24.344C57.1694 24.344 57.4974 24.2 57.7374 23.912C57.9774 23.624 58.0974 23.2 58.0974 22.64V9.992H62.6574V22.664C62.6574 24.264 62.1854 25.528 61.2414 26.456C60.3134 27.4 59.0174 27.872 57.3534 27.872ZM60.3774 8.552C59.5454 8.552 58.8734 8.32 58.3614 7.856C57.8494 7.392 57.5934 6.816 57.5934 6.128C57.5934 5.44 57.8494 4.864 58.3614 4.4C58.8734 3.936 59.5454 3.704 60.3774 3.704C61.2094 3.704 61.8814 3.928 62.3934 4.376C62.9054 4.808 63.1614 5.368 63.1614 6.056C63.1614 6.776 62.9054 7.376 62.3934 7.856C61.8814 8.32 61.2094 8.552 60.3774 8.552ZM71.1369 9.776C73.2969 9.776 74.9449 10.272 76.0809 11.264C77.2169 12.24 77.7849 13.744 77.7849 15.776V23H73.5369V21.32C72.8809 22.584 71.6009 23.216 69.6969 23.216C68.6889 23.216 67.8169 23.04 67.0809 22.688C66.3449 22.336 65.7849 21.864 65.4009 21.272C65.0329 20.664 64.8489 19.976 64.8489 19.208C64.8489 17.976 65.3209 17.024 66.2649 16.352C67.2089 15.664 68.6649 15.32 70.6329 15.32H73.2249C73.1449 13.944 72.2249 13.256 70.4649 13.256C69.8409 13.256 69.2089 13.36 68.5689 13.568C67.9289 13.76 67.3849 14.032 66.9369 14.384L65.4009 11.288C66.1209 10.808 66.9929 10.44 68.0169 10.184C69.0569 9.912 70.0969 9.776 71.1369 9.776ZM70.9689 20.336C71.4969 20.336 71.9609 20.208 72.3609 19.952C72.7609 19.696 73.0489 19.32 73.2249 18.824V17.696H71.2569C69.9289 17.696 69.2649 18.136 69.2649 19.016C69.2649 19.416 69.4169 19.736 69.7209 19.976C70.0249 20.216 70.4409 20.336 70.9689 20.336ZM85.0072 11.552C85.4712 10.96 86.0712 10.52 86.8072 10.232C87.5592 9.928 88.4152 9.776 89.3752 9.776V13.88C88.9592 13.832 88.6152 13.808 88.3432 13.808C87.3672 13.808 86.5992 14.072 86.0392 14.6C85.4952 15.128 85.2232 15.936 85.2232 17.024V23H80.6632V9.992H85.0072V11.552ZM104.984 16.904L103.208 18.8V23H98.5042V6.2H103.208V13.184L109.712 6.2H114.944L108.08 13.64L115.304 23H109.784L104.984 16.904ZM129.64 9.992V23H125.296V21.608C124.816 22.136 124.24 22.536 123.568 22.808C122.896 23.08 122.184 23.216 121.432 23.216C119.752 23.216 118.408 22.72 117.4 21.728C116.408 20.736 115.912 19.248 115.912 17.264V9.992H120.472V16.52C120.472 17.496 120.656 18.208 121.024 18.656C121.392 19.104 121.928 19.328 122.632 19.328C123.352 19.328 123.936 19.08 124.384 18.584C124.848 18.072 125.08 17.296 125.08 16.256V9.992H129.64ZM146.281 9.992L140.665 23.528C140.009 25.128 139.209 26.248 138.265 26.888C137.321 27.544 136.169 27.872 134.809 27.872C134.121 27.872 133.425 27.76 132.721 27.536C132.033 27.328 131.473 27.048 131.041 26.696L132.625 23.504C132.881 23.744 133.185 23.928 133.537 24.056C133.905 24.2 134.273 24.272 134.641 24.272C135.073 24.272 135.425 24.184 135.697 24.008C135.985 23.832 136.225 23.552 136.417 23.168L130.849 9.992H135.529L138.721 17.936L141.937 9.992H146.281Z" fill="black"/>
<circle cx="151" cy="20" r="3" fill="#079911"/>
</svg>
