<svg width="484" height="449" viewBox="0 0 484 449" fill="none" xmlns="http://www.w3.org/2000/svg">
<circle cx="250.5" cy="230.5" r="218.5" fill="#EAF5EB"/>
<path fill-rule="evenodd" clip-rule="evenodd" d="M278.198 188.921C283.416 192.693 282.585 200.114 281.015 205.507C278.702 213.446 274.096 220.796 268.841 227.132C259.519 238.371 243.694 250.991 229.107 241.124C216.116 232.336 207.922 214.605 205.093 199.669C204.219 195.053 203.055 188.176 207.162 184.706C213.235 179.577 223.946 180.51 231.276 181.17C236.104 181.605 240.762 183.081 245.532 182.388C256.617 180.777 268.953 182.236 278.198 188.921Z" fill="#079911"/>
<path fill-rule="evenodd" clip-rule="evenodd" d="M53.4603 247.736C64.0286 261.107 81.9959 263.219 97.9537 263.088C107.536 263.009 117.137 262.289 126.531 260.342C131.596 259.292 136.627 257.901 141.52 256.23C144.753 255.125 149.565 254.574 150.941 251.12C154.569 242.005 151.899 230.576 150.405 221.325C149.645 216.62 149.074 211.886 148.335 207.177C147.862 204.165 147.636 200.831 146.37 198.012C144.887 194.71 143.015 195.37 139.88 196.282C135.56 197.54 131.125 198.062 126.684 198.739C115.846 200.389 106.389 203.718 96.5392 208.436C86.7991 213.1 77.351 217.705 68.6632 224.191C64.2616 227.478 60.4687 231.046 56.9353 235.235C54.2055 238.471 50.1313 243.524 53.4603 247.736ZM99.6569 307.122C99.7418 308.562 116.305 304.216 118.484 303.728C132.786 300.529 147.37 296.886 160.872 291.105C173.474 285.71 184.578 279.538 194.494 269.952C199.117 265.485 203.275 260.779 207.253 255.769C209.247 253.257 211.971 253.549 214.195 251.424C216.195 249.511 217.729 248.018 217.104 245.159C212.106 246.473 202.877 254.729 197.696 250.56C194.743 248.183 198.839 245.701 200.73 244.324C204.284 241.735 207.324 238.54 210.149 235.188C205.298 236.126 200.782 237.938 196.56 240.46C194.684 241.581 188.254 245.644 186.758 241.771C185.836 239.386 190.196 236.389 191.555 235.07C194.893 231.831 198.497 228.05 200.268 223.695C195.887 222.681 191.757 226.058 188.773 228.809C185.461 231.863 181.401 235.068 178.624 238.587C177.191 240.402 176.88 242.546 175.761 244.503C174.501 246.706 172.487 248.594 170.561 250.224C166.852 253.364 162.514 255.676 158.06 257.588C147.884 261.958 136.977 265.05 126.13 267.22C120.808 268.284 115.618 268.774 110.217 268.955C106.019 269.096 104.162 270.347 102.559 274.204C98.222 284.642 99.0094 296.124 99.6569 307.122ZM224.218 227.593C226.645 229.858 229.799 231.278 232.335 233.456C234.568 235.372 237.143 237.416 239.634 238.965C242.294 240.618 244.281 239.459 246.675 237.963C249.487 236.207 252.719 235.496 255.614 233.925C265.625 228.491 277.873 215.176 276.004 202.949C275.212 197.768 272.526 192.669 267.648 190.318C263.218 188.183 256.778 186.998 252.038 188.783C249.365 189.79 247.452 192.012 245.739 194.197C243.742 196.744 242.977 196.343 240.943 193.886C237.303 189.491 231.301 185.635 225.367 185.728C222.418 185.775 219.488 186.395 216.832 187.615C216.472 187.781 216.272 188.282 215.91 188.452C215.467 188.66 214.738 188.227 214.429 188.422C213.651 188.912 212.875 190.447 212.426 191.225C210.626 194.349 207.385 200.475 210.651 203.104C210.653 203.106 210.506 206.663 210.551 207.068C210.781 209.19 211.517 210.942 212.464 212.883C215.31 218.714 219.512 223.202 224.218 227.593ZM219.379 276.923C221.678 277.636 224.154 270.45 221.949 269.303C219.846 268.209 217.297 276.278 219.379 276.923ZM255.488 268.331C256.285 271.046 256.621 274.126 258.568 276.335C260.351 274.225 260.527 270.332 258.798 268.164C257.81 266.926 254.617 265.366 255.488 268.331ZM181.917 220.773C181.93 220.842 179.151 222.168 180.507 223.618C182.359 225.598 182.105 221.744 181.917 220.773ZM170.432 198.651C170.464 201.396 176.289 200.734 176.248 197.973C176.197 194.576 170.398 195.742 170.432 198.651ZM177.386 175.714C176.809 173.201 166.676 169.706 166.952 174.085C167.091 176.281 178.609 181.056 177.386 175.714ZM281.265 260.929C282.401 262.291 284.014 262.828 285.376 263.873C286.804 264.969 287.824 266.39 289.071 267.676C292.496 271.207 296.618 274.109 300.313 277.353C307.105 283.316 313.611 289.726 321.142 294.784C334.6 303.82 350.206 308.763 365.698 313.091C366.981 313.449 370.678 314.896 371.948 313.818C373.318 312.656 372.621 308.565 372.558 307.019C372.301 300.678 371.56 294.262 371.64 287.93C371.674 285.33 372.437 281.633 371.077 279.253C369.557 276.596 365.316 275.818 362.692 274.818C354.718 271.778 347.036 266.65 339.992 261.901C331.333 256.063 322.587 250.128 313.676 244.677C304.945 239.338 295.315 235.763 285.576 232.713C285.125 233.658 289.772 236.701 290.303 237.128C292.851 239.173 295.623 241.294 297.514 243.994C298.853 245.906 300.226 250.232 296.529 250.343C294.737 250.397 292.087 248.668 290.462 248.108C287.778 247.185 285.012 246.536 282.205 246.114C284.618 248.765 292.8 253.526 291.312 257.935C289.867 262.212 281.513 257.22 278.637 257.22C279.109 258.712 280.294 259.764 281.265 260.929ZM379.962 272.868C385.312 274.745 390.796 275.812 396.318 277.023C401.581 278.178 406.446 279.048 411.837 278.372C419.28 277.439 427.517 274.364 428.46 265.929C429.579 255.935 422.502 246.751 416.425 239.581C409.03 230.857 400.725 223.058 391.725 215.997C382.735 208.941 373.031 202.722 362.865 197.471C355.131 193.476 346.396 191.051 338.219 188.053C336.663 187.483 332.36 185.479 330.905 187.139C329.729 188.482 331.329 190.72 331.865 191.967C332.911 194.398 333.055 196.845 333.325 199.455C334.53 211.112 335.982 222.766 336.649 234.472C336.836 237.735 337.163 241.148 336.972 244.413C336.867 246.221 335.923 248.524 336.552 250.29C337.759 253.684 343.291 255.93 346.222 257.446C351.471 260.16 357.028 262.185 362.33 264.781C368.153 267.632 373.822 270.714 379.962 272.868ZM305.762 197.127C304.294 196.926 302.094 196.527 300.785 197.475C299.077 198.713 299.525 200.435 301.102 201.332C302.347 202.041 305.262 202.235 306.492 201.592C308.588 200.495 308.233 197.466 305.762 197.127ZM297.629 224.119C298.816 226.09 303.153 227.383 302.775 223.704C302.451 220.554 295.443 220.489 297.629 224.119ZM299.239 168.586C297.331 169.323 293.869 169.954 293.303 172.401C292.777 174.679 294.941 174.529 296.503 173.902C297.788 173.387 303.511 168.547 299.239 168.586ZM0.338867 255.485C1.45303 251.16 0.604523 246.372 1.21933 241.943C1.81583 237.65 2.88922 233.704 4.42935 229.658C7.83981 220.7 11.7469 212.636 17.2749 204.774C27.6863 189.969 39.7655 176.928 54.3516 166.114C68.7516 155.438 84.6971 146.762 101.588 140.682C119.5 134.233 137.53 131.989 156.418 130.753C162.059 130.384 167.695 129.946 173.303 129.236C177.403 128.716 182.542 128.077 186.595 129.329C189.141 130.116 190.564 132.331 187.79 133.784C185.823 134.815 183.248 134.938 181.076 135.212C183.7 143.525 187.969 151.867 194.735 157.591C201.34 163.18 210.178 165.096 218.514 166.513C223.035 167.281 228.096 167.876 232.687 167.544C235.589 167.336 237.853 165.995 239.024 168.977C239.837 171.048 240.221 173.321 241.293 170.193C242.56 166.496 243.181 166.519 247.123 165.469C255.184 163.321 264.425 161.362 271.457 156.717C278.753 151.899 281.29 144.103 285.363 136.845C286.37 135.051 289.409 131.419 287.856 129.364C286.436 127.484 281.819 127.671 279.705 127.475C277.474 127.268 275.229 127.259 272.991 127.173C271.694 127.123 269.085 127.653 269.607 125.721C270.394 122.809 278.828 123.182 280.923 123.135C284.817 123.048 288.766 123.138 292.641 123.565C311.856 125.684 331.243 129.603 349.837 134.829C385.911 144.967 420.85 163.648 447.177 190.561C472.448 216.395 480.455 259.385 464.919 292.37C456.845 309.513 439.323 316.556 422.338 322.243C413.38 325.243 403.893 327.59 394.369 327.024C389.799 326.752 385.463 325.524 381.006 324.6C379.062 324.196 376.85 323.553 374.853 323.715C373.342 323.839 371.89 325.222 370.472 324.487C369.466 323.965 369.028 322.467 367.799 321.829C366.322 321.063 364.532 320.787 362.938 320.401C358.505 319.327 354.214 317.585 349.882 316.158C345.402 314.681 341.174 312.78 336.876 310.857C334.705 309.886 329.682 305.938 328.268 308.824C327.623 310.142 327.898 312.682 327.741 314.064C327.466 316.48 327.142 318.891 326.789 321.297C326.01 326.593 325.078 331.868 324.123 337.136C322.399 346.642 320.177 355.742 316.463 364.684C313.496 371.823 310.892 379.916 305.385 385.595C302.98 388.074 299.7 389.19 296.251 388.411C292.329 387.525 290.376 383.971 287.995 381.098C282.756 374.775 274.106 369.931 266.118 368.187C256.338 366.051 246.81 369.175 237.474 371.829C227.599 374.638 217.545 377.314 207.852 380.689C198.82 383.836 189.067 388.482 179.271 388.078C170.729 387.725 162.749 380.791 156.589 375.506C150.401 370.198 142.664 362.425 133.767 363.051C129.349 363.361 125.323 365.486 121.02 366.351C116.296 367.299 111.269 367.434 106.465 367.788C100.502 368.226 87.1605 366.676 84.9546 359.521C84.6271 358.459 84.6251 356.274 86.0307 355.849C87.3235 355.459 87.9839 356.966 89.2088 356.897C91.7007 356.757 93.6478 352.424 95.0167 350.746C100.541 343.974 108.12 338.922 114.319 332.804C121.319 325.896 127.296 317.527 132.57 309.272C130.186 308.654 127.613 309.68 125.305 310.168C122.501 310.76 119.768 311.476 117.005 312.235C113.959 313.072 110.87 313.646 107.779 314.284C105.472 314.759 102.411 314.902 100.329 316.056C98.5121 317.063 97.4978 318.145 95.2416 318.438C92.9474 318.734 90.592 318.484 88.2869 318.469C82.053 318.427 75.832 318.311 69.6273 317.654C47.7033 315.331 24.4633 306.082 11.2801 287.728C7.6944 282.735 4.80573 277.204 2.98026 271.335C1.55563 266.753 -0.901001 260.296 0.338867 255.485Z" fill="#232323"/>
<path fill-rule="evenodd" clip-rule="evenodd" d="M205.97 44.0048C200.208 44.0861 194.808 45.79 189.44 47.7271C184.718 49.4304 179.685 51.0062 175.868 54.406C169.001 60.5216 167.213 70.6476 166.089 79.3109C164.688 90.1215 169.352 99.1915 173.277 108.972C176.949 118.119 183.688 125.529 191.697 131.176C195.894 134.134 200.532 135.919 205.384 137.485C210.313 139.075 215.087 141.204 220.36 141.196C228.368 141.185 238.621 137.391 242.033 129.522C243.585 125.939 242.073 125.296 238.965 127.243C234.457 130.068 230.11 133.117 224.841 134.37C214.623 136.801 202.385 133.035 193.425 128.066C184.469 123.097 178.456 115.634 174.438 106.341C170.383 96.9664 168.808 87.7283 170.372 77.6212C171.696 69.0561 174.333 61.2325 182.071 56.583C198.778 46.5471 221.287 47.3557 236.145 60.3982C238.182 62.1862 240.196 63.926 242.296 65.6334C243.631 66.7185 245.203 68.0205 245.009 69.8973C244.843 71.5043 241.407 77.7005 245.544 75.7973C248.898 74.254 250.721 71.2372 254.783 70.8638C259.107 70.4659 264.265 73.7789 265.559 77.9486C266.793 81.9272 264.593 87.3704 261.147 89.6525C259.012 91.0656 256.664 90.8474 254.241 90.7905C253.038 90.762 249.69 90.3723 248.894 91.6404C247.486 93.8832 252.454 96.2405 254.057 96.7366C257.959 97.9437 262.57 96.5231 264.813 93.0495C267.093 89.5183 268.654 85.4313 268.968 81.2243C269.268 77.1935 268.351 73.1126 265.967 69.803C263.431 66.2833 258.261 62.3373 253.627 63.56C251.616 64.0907 250 66.1634 248.026 66.5572C246.78 66.8052 247.304 66.9828 246.272 66.0617C245.616 65.4775 244.997 64.3991 244.392 63.7064C240.914 59.7238 237.475 55.4735 233.218 52.2859C225.585 46.5702 215.44 43.8706 205.97 44.0048ZM227.078 122.965C226.175 120.854 224.517 124.619 224.026 125.249C223.056 126.494 220.773 127.463 220.872 129.3C221.034 132.332 225.179 131.77 226.561 130.188C228.133 128.387 227.969 125.049 227.078 122.965ZM197.634 108.607C195.398 112.082 198.123 115.833 199.89 118.908C201.581 121.849 203.151 125.173 205.118 127.938C208.384 132.528 215.491 127.563 215.702 122.845C215.863 119.234 213.298 120.806 211.652 122.155C209.958 123.544 209.155 123.89 207.378 122.372C203.805 119.319 202.199 114.213 199.729 110.347C199.239 109.58 198.352 109.119 197.634 108.607ZM191.26 109.724C190.683 111.405 191.893 115.858 188.531 115.412C186.673 115.167 186.276 112.508 185.3 111.347C182.015 107.446 183.022 114.825 183.881 116.671C185.773 120.741 191.067 123.545 193.693 118.382C194.67 116.461 194.666 114.037 194.169 111.972C193.899 110.848 192.324 106.621 191.26 109.724ZM221.243 101.765C221.541 103.726 223.389 107.632 221.132 109.035C219.147 110.27 215.69 107.589 214.161 106.469C212.573 105.306 208.973 101.968 208.832 106.121C208.759 108.239 210.884 110.779 212.401 111.998C215.636 114.599 222.358 116.932 224.742 112.037C226.04 109.37 225.33 105.573 224.471 102.886C223.775 100.707 220.524 97.0292 221.243 101.765ZM178.813 91.0303C177.497 92.555 174.377 95.971 176.073 98.1424C178.057 100.68 181.28 96.0238 182.551 94.7277C183.695 93.5602 186.104 90.2355 185.077 88.472C183.377 85.5539 179.97 89.6917 178.813 91.0303ZM199.506 84.465C195.202 87.261 200.86 89.2742 203.311 89.5245C206.278 89.8262 210.07 90.0264 212.795 88.5747C216.657 86.5168 215.37 83.4084 211.627 82.6642C207.788 81.9018 202.845 82.2949 199.506 84.465ZM255.448 75.5645C252.284 76.1786 248.669 76.9778 247.591 80.4186C246.479 83.9746 248.078 85.1548 251.31 84.3542C254.3 83.6133 258.767 82.8677 260.458 79.9543C262.478 76.4735 258.383 74.9958 255.448 75.5645Z" fill="#232323"/>
<path fill-rule="evenodd" clip-rule="evenodd" d="M429.57 151.974C430.632 155.394 436.007 157.663 438.687 159.742C448.063 167.016 457.224 174.59 465.7 182.892C470.099 187.201 473.429 192.413 477.244 197.206C478.175 198.375 479.824 200.995 481.65 200.749C483.653 200.48 484.058 197.039 483.994 195.537C483.775 190.413 479.083 185.465 475.737 181.936C471.973 177.969 467.948 174.103 463.838 170.49C459.313 166.514 454.403 163.095 449.399 159.748C444.485 156.462 439.774 152.666 434.664 149.689C432.257 148.287 428.26 147.754 429.57 151.974ZM101.845 119.491C97.9312 119.614 94.1125 120.894 90.4218 122.082C82.3034 124.697 74.5713 128.324 66.9468 132.115C53.5796 138.76 40.7158 146.8 28.9244 155.941C26.4595 157.852 23.9325 159.4 21.2522 160.962C19.5367 161.963 17.0908 163.184 16.43 165.224C14.7512 170.408 23.2246 165.204 24.4271 164.46L26.1186 163.414C51.207 147.906 76.2664 132.839 104.645 123.946C106.157 123.472 106.627 122.127 105.834 120.794C104.974 119.349 103.299 119.445 101.845 119.491ZM430.712 130.342C430.893 131.92 432.686 132.279 433.895 132.786C438.407 134.676 443.031 136.288 447.531 138.209C455.882 141.775 463.551 146.95 472.267 149.657C474.259 150.276 474.553 148.271 474.02 146.907C473.426 145.384 471.642 144.315 470.352 143.434C466.63 140.891 462.409 139.063 458.275 137.297C454.177 135.544 449.958 134.218 445.757 132.749C441.852 131.384 437.32 128.842 433.126 128.654L432.943 128.645C431.609 128.578 430.5 128.488 430.712 130.342ZM94.7217 106.36C98.7116 105.24 94.9421 102.721 92.5711 102.898C89.9259 103.096 87.3691 104.342 84.8607 105.093C77.1911 107.39 70.082 109.901 62.9171 113.466C61.8486 113.998 57.1411 116.521 60.2549 117.639C62.4131 118.413 67.4532 115.092 69.3059 114.295C77.4482 110.793 86.1972 108.751 94.7217 106.36Z" fill="#232323"/>
<path fill-rule="evenodd" clip-rule="evenodd" d="M253.77 114.514C253.271 113.054 247.103 97.1015 249.517 96.6204C252.074 96.1103 255.493 105.366 256.234 107.038C258.974 113.214 260.597 119.841 261.868 126.466C262.753 131.078 263.531 135.804 263.221 140.52C262.983 144.144 261.482 144.693 259.009 146.913C259.009 135.905 257.331 124.933 253.77 114.514Z" fill="#232323"/>
<path fill-rule="evenodd" clip-rule="evenodd" d="M338.58 55.2851C343.106 50.2751 348.833 46.6331 356.076 49.6283C362.659 52.3503 365.986 59.6095 365.999 66.1502C366.014 73.2249 362.675 80.1339 356.19 83.3961C349.363 86.8302 341.411 83.8783 337.708 77.2097C333.576 69.7684 335.379 62.3858 338.58 55.2851ZM333.516 57.2496C330.597 64.6552 331.98 73.9145 337.46 80.1753C343.11 86.6296 352.098 88.9605 359.589 84.9529C374.729 76.854 371.6 52.4166 354.922 46.7825C350.687 45.352 346.476 45.843 342.521 47.5387C338.154 49.4104 335.764 53.3586 333.516 57.2496Z" fill="#232323"/>
<path fill-rule="evenodd" clip-rule="evenodd" d="M400.456 44.5754C398.225 47.5963 395.849 50.514 393.638 53.5417C391.545 56.4086 389.636 58.9114 386.551 60.8468C387.568 56.3408 388.654 51.8634 389.806 47.3927C390.378 45.1755 390.916 42.9438 391.528 40.7386C392.001 39.0324 392.529 37.6125 391.171 36.0597C389.591 34.2522 388.816 36.2665 388.647 37.705C388.414 39.6889 387.838 41.6623 387.455 43.6362C386.6 48.0418 385.63 52.4101 384.639 56.7826C384.331 58.1418 381.789 65.5762 385.508 64.5309C387.101 64.0839 388.981 62.1119 390.426 61.273C392.279 60.1969 393.665 58.6571 395.073 57.0789C398.006 53.7895 400.554 50.0867 403.414 46.6927C404.875 44.9595 406.335 43.2268 407.795 41.494C408.651 40.4784 408.885 40.032 407.739 38.9688C406.906 38.196 405.784 37.9177 404.736 37.5834C402.074 36.7331 399.39 35.9488 396.711 35.1594C395.689 34.8576 391.533 32.9556 390.659 33.4676C388.676 34.6292 394.894 36.4648 395.635 36.7245C398.431 37.7034 401.263 38.581 403.965 39.8076C402.814 41.4129 401.66 43.0101 400.456 44.5754Z" fill="#232323"/>
<path fill-rule="evenodd" clip-rule="evenodd" d="M333.516 57.2495L335.724 53.4277C334.674 54.5203 333.746 55.6832 333.516 57.2495Z" fill="#232323"/>
<path fill-rule="evenodd" clip-rule="evenodd" d="M400.455 44.5757C400.901 43.9974 401.345 43.4188 401.79 42.841C401.344 43.4198 400.9 43.9976 400.455 44.5757Z" fill="#232323"/>
<path fill-rule="evenodd" clip-rule="evenodd" d="M368.055 75.3312C367.817 75.7253 367.578 76.1194 367.344 76.5079C367.583 76.112 367.819 75.7218 368.055 75.3312Z" fill="#232323"/>
<path fill-rule="evenodd" clip-rule="evenodd" d="M80.3683 422.659C78.5436 422.282 77.0078 420.759 75.5175 419.615C73.617 418.156 71.8138 416.566 69.9684 415.033C66.491 412.144 63.3356 408.976 60.3352 405.53C54.4152 398.732 49.9585 389.982 47.9324 381.042C46.9075 376.519 45.6398 371.219 46.2216 366.544C46.4239 364.92 46.7322 364.622 48.2548 364.437C48.9423 364.354 50.6874 364.148 51.3066 364.43C52.9112 365.163 53.7774 368.284 54.2531 369.852C55.6588 374.481 56.486 379.276 57.7562 383.944C59.0012 388.519 61.0078 393.161 62.992 397.44C67.4073 406.959 73.544 414.923 80.3683 422.659ZM44.1715 370.102C45.2627 383.065 48.704 395.416 56.4201 405.855C60.0878 410.817 64.4011 415.134 69.0762 419.056C73.9034 423.105 78.8333 426.919 84.3107 429.939C85.7682 430.742 87.2278 431.543 88.7036 432.31C89.5216 432.735 91.5867 434.301 92.5304 434.053C93.2863 433.854 93.4835 433.243 93.6016 432.447C93.866 430.661 92.7566 429.769 91.6348 428.623C87.1279 424.015 82.607 419.39 78.3932 414.488C70.0712 404.808 63.8196 393.215 60.3447 380.707C59.2743 376.856 58.319 372.961 57.1636 369.137C56.4599 366.808 55.462 362.661 53.123 361.499C51.8689 360.877 50.4073 361.482 49.0886 361.109C47.8515 360.759 47.0318 360.045 45.9775 361.243C44.1276 363.345 44.0451 367.468 44.1715 370.102Z" fill="#232323"/>
<path fill-rule="evenodd" clip-rule="evenodd" d="M24.6344 348.01C28.1611 347.915 33.5295 347.904 33.3318 352.941C33.234 355.435 31.941 357.266 30.8789 359.399C29.7637 361.641 28.9369 363.957 28.6095 366.47C27.2854 376.64 30.8378 386.577 34.0509 395.979C27.1503 390.155 22.1669 382.05 19.5502 373.166C18.2817 368.858 17.7881 363.321 18.198 358.835C18.4031 356.59 19.1947 354.578 20.1478 352.578C20.6265 351.574 21.1052 350.426 21.8685 349.613C22.6331 348.799 23.6932 348.527 24.6344 348.01ZM36.9369 401.805C39.2154 397.886 35.6281 392.117 34.4553 388.296C33.0529 383.728 31.7591 378.971 31.1598 374.207C30.532 369.216 31.3426 365.336 33.5544 360.928C35.5324 356.987 36.7065 351.738 34.5075 347.568C33.6219 345.89 32.3144 345.684 30.7599 345.014C28.8519 344.193 28.3264 342.803 25.985 343.023C21.8072 343.416 19.8743 347.559 18.3202 351.09C14.6965 359.32 15.6816 369.942 18.772 378.207C20.5507 382.962 22.5793 387.9 25.5991 391.949C27.0799 393.935 28.8204 395.656 30.6265 397.312C32.5805 399.104 34.331 401.263 36.9369 401.805Z" fill="#232323"/>
<path fill-rule="evenodd" clip-rule="evenodd" d="M24.6345 348.01C25.0021 348 25.3693 347.99 25.7314 347.98C25.363 347.99 24.9988 348 24.6345 348.01Z" fill="#232323"/>
<path fill-rule="evenodd" clip-rule="evenodd" d="M410.273 412.165C409.938 412.335 409.602 412.505 409.267 412.675C409.246 412.639 414.465 407.749 415.054 407.022C417.051 404.556 418.47 401.704 419.922 398.929C422.996 393.052 424.98 386.66 428.162 380.849C429.208 378.937 430.672 375.636 433.363 375.455C436.038 375.274 436.995 380.281 436.773 382.161C436.426 385.109 434.691 387.942 433.21 390.508C431.594 393.307 430.008 396.115 427.997 398.681C425.829 401.448 423.402 404.186 420.566 406.336C417.388 408.746 413.841 410.383 410.273 412.165ZM398.992 414.483C398.95 416.745 397.72 414.297 396.812 415.452C395.817 416.719 400.158 417.032 400.96 417.033C405.697 417.034 410.794 414.854 414.985 412.806C417.099 411.773 419.288 410.857 421.34 409.705C423.341 408.581 425.066 406.929 426.728 405.382C430.052 402.285 432.922 398.648 435.234 394.805C437.554 390.951 439.776 386.765 440.59 382.357C441.262 378.716 438.627 374.061 434.635 373.657C430.556 373.245 427.225 376.475 425.405 379.655C423.031 383.803 420.766 388.226 418.967 392.624C418.042 394.883 416.721 396.943 415.717 399.17C414.648 401.541 413.493 403.662 411.796 405.689C410.152 407.652 408.521 409.654 406.458 411.231C404.199 412.957 401.688 413.669 398.992 414.483Z" fill="#232323"/>
<path fill-rule="evenodd" clip-rule="evenodd" d="M420.191 427.405C424.975 426.191 429.524 424.159 434.34 423.097C430.472 431.017 420.686 430.646 413.387 428.967L420.191 427.405ZM419.652 424.645C417.335 425.302 414.993 425.873 412.765 426.78C410.425 427.732 408.859 427.027 406.66 426.155C405.752 427.733 409.539 429.583 410.64 430.077C412.907 431.094 415.643 431.534 418.111 431.915C423.369 432.727 428.744 432.757 433.255 429.473C434.927 428.256 437.228 426.69 437.794 424.634C438.416 422.376 436.292 421.434 434.321 421.17C429.511 420.526 424.319 423.693 419.652 424.645Z" fill="#232323"/>
<path fill-rule="evenodd" clip-rule="evenodd" d="M329.336 31.2638C330.796 22.6452 332.258 14.0262 333.719 5.40759C336.976 7.28691 340.232 9.16597 343.49 11.045C344.371 11.5533 345.707 12.0487 346.44 12.7468C347.221 13.4922 347.328 13.1406 346.442 14.1447C345.308 15.4284 343.97 16.5766 342.748 17.7775C340.551 19.9363 338.575 22.484 336.197 24.4377C334.983 25.4346 334.11 26.5916 333.021 27.7032C331.825 28.9241 330.458 29.9705 329.336 31.2638ZM350.579 13.4932C347.119 11.077 343.449 9.06088 339.794 6.95853C336.505 5.06715 333.478 3.10949 329.851 2.01483C330.936 4.1166 329.874 7.09726 329.676 9.26191C329.403 12.2447 328.713 15.142 328.296 18.0993C327.887 21.004 327.694 23.9426 327.281 26.8479C327.071 28.3212 326.813 29.7853 326.609 31.2595C326.482 32.1824 325.914 34.1862 326.264 35.0599C327.326 37.7123 330.586 33.4476 331.351 32.7195C333.648 30.5368 335.738 28.1663 338.046 25.9985C340.198 23.9779 342.318 21.9278 344.43 19.8662C346.519 17.8258 348.907 15.8873 350.579 13.4932Z" fill="#232323"/>
<path fill-rule="evenodd" clip-rule="evenodd" d="M349.223 57C347.873 58.2712 348.522 59.5827 348.964 61.1707C349.23 62.1238 350.691 65.253 350.288 66.1445C349.822 67.1752 347.633 67.4287 346.697 67.7542C345.066 68.3211 343.429 68.8906 341.886 69.6899C341.201 70.0448 338.732 70.8605 338.269 71.5227C338.003 71.9024 337.907 72.1997 338.106 72.6891C338.456 73.5481 338.956 73.0934 339.809 72.9092C343.708 72.0667 347.574 70.9892 351.191 69.2122C352.199 71.6597 353.053 74.1592 353.906 76.6704C354.155 77.4063 354.394 79.0784 355.344 79.1976C356.501 79.3424 356.517 77.7205 356.44 76.8455C356.328 75.5678 355.695 74.2056 355.313 72.9959C354.998 71.9973 353.891 69.9183 354.028 68.8893C354.121 68.1812 354.534 68.2306 355.269 67.9523C355.964 67.6897 356.66 67.4283 357.354 67.1626C358.468 66.7366 359.577 66.3092 360.661 65.8039C361.255 65.5265 362.5 65.2023 362.93 64.6267C363.18 64.293 363.459 63.0903 363.143 62.7574C362.406 61.9777 357.503 64.0763 356.494 64.3628C355.826 64.5531 355.153 64.6983 354.504 64.9475C354.259 65.0424 353.968 65.4272 353.702 65.4416C352.574 65.5014 352.485 64.5942 352.135 63.6212C351.322 61.3601 350.44 59.0535 349.223 57Z" fill="#232323"/>
</svg>
