<svg width="586" height="468" viewBox="0 0 586 468" fill="none" xmlns="http://www.w3.org/2000/svg">
<circle cx="328" cy="234" r="234" fill="#EAF5EB"/>
<path fill-rule="evenodd" clip-rule="evenodd" d="M181.901 277.989C184.907 298.297 187.913 318.604 190.919 338.912L193.346 355.311C193.652 357.381 193.363 361.463 194.53 363.315C194.942 363.969 196.026 364.279 196.823 364.664C199.565 365.991 202.309 367.317 205.051 368.644C228.251 379.864 251.452 391.085 274.651 402.306C296.916 413.074 319.182 423.843 341.447 434.611C343.751 435.726 347.478 438.634 349.965 437.868C352.329 437.14 354.746 435.344 356.892 434.211C361.013 432.035 365.133 429.86 369.253 427.685C394.187 414.522 419.119 401.358 444.053 388.195C454.34 382.765 464.626 377.334 474.914 371.903C477.728 370.417 480.543 368.931 483.358 367.445C484.83 366.668 485.021 366.695 485.6 365.376C487.766 360.445 488.77 354.796 490.302 349.679C491.992 344.04 493.681 338.401 495.37 332.762C496.123 330.246 495.77 329.921 494.541 327.492C492.11 322.685 489.679 317.878 487.248 313.071C481.853 302.401 476.458 291.731 471.061 281.062C468.879 276.747 463.624 273.711 459.84 270.538L401.09 221.264C399.598 220.012 398.106 218.761 396.614 217.509C396.368 225.032 394.718 233.118 397.138 240.385C401.11 252.31 405.081 264.236 409.053 276.161C410.972 281.926 412.891 287.689 414.811 293.453C415.168 294.524 417.339 298.771 416.759 299.713C416.437 300.235 413.695 300.763 413.1 300.967C410.549 301.841 407.997 302.716 405.444 303.591C398.334 306.028 391.224 308.464 384.114 310.901C377.718 313.093 371.323 315.284 364.928 317.476C362.76 318.219 360.213 319.596 357.922 319.481C355.874 319.378 353.544 318.465 351.562 318.005C348.076 317.196 344.59 316.387 341.105 315.578C334.258 313.99 327.411 312.401 320.564 310.812C312.861 309.025 306.355 303.775 299.768 299.889C288.444 293.21 277.121 286.531 265.798 279.853C263.206 278.324 263.196 277.451 262.163 274.659C259.842 268.386 257.52 262.112 255.199 255.838C253.959 252.488 252.435 249.124 251.499 245.694C249.954 240.034 249.039 234.175 247.816 228.452C247.447 226.726 247.078 224.999 246.709 223.272C241.967 225.005 237.225 226.739 232.482 228.473C231.795 228.724 228.446 229.473 228.148 230.089C227.959 230.478 228.956 232.244 229.098 232.624C233.03 243.115 236.962 253.605 240.895 264.095C242.132 267.396 243.368 270.695 244.605 273.995C241.65 269.811 238.694 265.627 235.738 261.443C233.416 268.48 231.093 275.517 228.771 282.554C223.282 276.848 217.793 271.143 212.303 265.437C210.403 271.143 208.503 276.848 206.603 282.554C200.692 275.517 194.78 268.48 188.868 261.443C188.166 265.115 187.463 268.787 186.76 272.459C186.548 273.568 186.59 276.748 185.771 277.625C185.097 278.348 183.155 277.989 181.901 277.989Z" fill="#079911"/>
<path fill-rule="evenodd" clip-rule="evenodd" d="M556.181 321.886C555.849 331.446 556.079 343.855 550.272 352.26C549.335 353.616 546.159 357.842 545.805 354.125C545.457 350.475 546.454 346.861 545.467 343.17C544.938 341.194 543.162 336.88 540.125 338.664C538.577 339.573 538.169 341.819 537.564 343.236C536.668 345.333 535.665 347.396 534.722 349.477C531.428 356.741 528.016 365.41 520.695 370.217C521.653 363.953 524.264 357.265 522.509 350.933C521.911 348.775 520.098 344.835 516.978 346.1C513.936 347.331 511.965 352.828 510.53 355.276C506.178 362.697 501.727 369.979 496.828 377.123C494.364 380.716 491.702 384.001 488.478 387.074C486.462 388.997 483.948 392.246 480.77 392.533C480.77 387.054 482.772 381.76 484.599 376.6C486.564 371.052 488.356 365.457 490.285 359.898C491.959 355.076 493.333 350.291 494.447 345.347C494.908 343.302 495.273 341.185 497.208 339.864C498.947 338.677 501.695 338.112 503.634 337.24C508.727 334.948 513.964 332.475 518.695 329.626C520.637 328.456 522.309 326.946 524.343 325.896C526.66 324.701 528.824 323.695 530.968 322.238C540.219 315.953 548.559 308.22 554.178 299.016C555.09 302.714 556.298 306.327 556.432 310.139C556.568 314.047 556.317 317.98 556.181 321.886ZM480.044 365.825C478.565 363.574 476.311 364.496 474.325 365.582C471.243 367.265 468.152 368.937 465.055 370.6C458.751 373.983 452.563 377.543 446.404 381.136C433.867 388.446 420.892 394.43 407.674 400.618C394.899 406.598 382.629 413.715 370.66 420.909C367.783 422.638 364.926 424.407 362.164 426.282C359.712 427.946 357.752 430.283 355.171 431.765C352.483 433.308 350.635 432.056 348.064 430.918C344.849 429.495 341.499 428.303 338.212 427.019C324.95 421.84 311.65 416.463 298.749 410.584C285.925 404.742 273.776 398.009 261.489 391.323C255.637 388.138 249.885 384.752 244.114 381.451C237.971 377.938 231.611 375.306 225.168 372.319C222.317 370.997 219.792 369.203 216.864 368.001C213.786 366.739 210.534 365.833 207.778 364.011C206.542 363.194 205.5 362.217 204.087 361.639C202.927 361.165 201.611 361.085 200.466 360.582C198.137 359.557 197.47 357.477 197.019 355.314C194.117 341.428 192.575 327.158 190.893 313.117C189.948 305.222 188.894 297.357 187.588 289.503C186.999 285.962 188.183 283.219 188.805 279.775C189.531 275.752 189.818 271.644 190.304 267.594C192.6 271.424 194.585 275.445 197.505 278.94C199.658 281.517 203.335 285.17 207.3 285.084C213.461 284.95 213.179 275.43 213.427 271.651C216.234 273.908 217.085 277.584 219.415 280.205C221.542 282.598 224.436 285.567 227.702 286.639C234.579 288.895 233.918 277.395 233.539 274.134C233.349 272.498 232.324 269.91 234.757 270.656C236.997 271.343 239.177 274.191 241.06 275.497C244.315 277.755 247.885 279.631 251.224 281.787C255.367 284.462 259.838 286.395 264.062 288.886C266.703 290.444 269.585 290.794 272.465 291.94C276.685 293.619 280.412 296.121 284.428 298.134C292.381 302.119 301.204 305.691 309.904 308.094C312.718 308.871 316.469 311.062 318.604 308.81C319.919 307.425 320.783 305.309 321.899 303.756C323.311 301.789 324.81 299.875 326.367 298C331.901 291.335 338.043 285.042 344.864 279.42C352.799 272.881 361.476 266.996 370.758 262.095C374.745 259.989 391.397 250.55 395.057 257.193C392.049 257.024 389.442 258.016 386.87 259.257C386.242 259.559 383.005 261.642 383.763 259.807C382.822 259.965 381.998 261.07 381.286 261.561C380.055 262.41 378.188 263.39 376.763 264.093C375.355 264.788 373.614 264.958 372.33 265.8C371.862 266.107 371.577 266.606 371.13 266.939L369.848 266.948C369.656 267.587 369.464 268.226 369.273 268.866C368.548 266.774 367.514 269.495 366.304 270.379C365.576 270.91 364.424 271.457 363.567 271.8C362.927 272.056 362.828 271.46 362.206 271.913C361.654 272.316 361.302 273.202 360.707 273.706C359.978 274.323 359.046 274.803 358.233 275.331C356.676 276.34 355.029 277.133 353.452 278.091C351.33 279.379 350.218 281.595 348.158 282.942C347.182 283.58 345.666 283.654 345.138 284.063C343.814 285.089 344.25 286.643 341.78 286.712C342.005 287.036 342.14 287.387 342.186 287.767C341.597 287.675 341.074 287.456 340.616 287.107C340.719 289.326 338.296 290.119 336.844 291.486C336.007 292.273 334.964 293.38 334.373 294.328C334.275 294.487 334.088 295.752 334.047 295.769C333.823 295.866 332.458 294.786 332.587 294.876C332.206 296.926 330.004 298.865 329.039 300.763C328.531 301.764 328.015 303.372 327.013 304.075C326.741 304.266 325.903 304.066 325.211 304.731C324.703 305.218 324.117 306.119 323.911 306.766C323.773 307.198 323.938 308.315 323.741 308.574C323.379 309.048 322.815 308.572 322.247 308.922C321.198 309.569 321.172 310.58 319.637 310.713C320.695 313.028 327.082 313.742 329.403 314.401C335.968 316.262 342.855 318.121 348.992 320.971C350.579 321.708 352.081 322.316 352.362 324.015C352.754 326.378 351.417 329.521 351.162 331.908C350.471 338.355 350.33 344.991 350.474 351.466C350.611 357.598 350.831 363.788 351.149 369.913C351.443 375.592 352.714 381.159 353.4 386.797C353.588 388.345 353.462 395.325 356.416 394.973C358.883 394.68 357.325 389.913 357.279 388.546C357.176 385.522 357.883 382.434 357.853 379.382C357.839 377.915 358.551 376.652 358.619 375.248C358.687 373.861 357.922 372.765 358.151 371.327C358.372 369.947 362.899 362.012 358.551 362.941C358.805 361.807 359.028 360.663 359.365 359.545C359.83 359.922 360.205 360.362 360.487 360.864C360.874 358.427 360.745 355.994 360.985 353.555C361.093 352.45 361.59 351.24 361.42 350.126C361.452 349.664 361.387 349.211 361.225 348.767C360.958 348.512 360.626 348.378 360.233 348.365C360.026 347.755 359.973 347.588 360.34 346.989C360.498 346.583 360.811 346.33 361.279 346.23C362.171 346.134 362.272 345.673 361.584 344.845C361.943 343.211 361.989 342.179 361.73 340.548C361.512 339.179 362.314 336.526 361.497 335.306C360.544 333.88 360.07 335.263 359.893 333.287C359.855 332.869 359.825 331.997 360.011 331.58C360.216 331.126 360.831 331.312 360.909 331.15C361.443 330.052 361.479 327.889 359.59 328.077C359.664 327.293 359.738 326.508 359.811 325.723C361.176 327.139 360.699 325.941 361.473 325.154C362.516 324.094 363.535 323.911 365.026 323.492C368.998 322.376 372.824 320.697 376.706 319.334C384.924 316.449 393.296 313.873 401.274 310.463C418.053 303.291 434.5 295.506 451.383 288.523C450.177 286.507 450.927 286.409 451.808 284.515C452.985 285.252 452.737 284.738 453.575 284.693C453.499 284.061 453.717 283.871 454.228 284.121C454.636 284.234 455.053 284.274 455.481 284.24C456.526 284.402 457.38 284.92 458.33 285.117C458.642 285.324 458.984 285.479 459.358 285.584C459.694 285.515 459.98 285.365 460.217 285.135C461.755 285.391 462.273 286.435 462.341 287.946C462.352 288.209 461.459 288.478 461.715 288.831C462.161 289.449 463.363 289.301 464.051 289.38C463.901 290.021 463.75 290.662 463.6 291.303C466.618 290.048 465.83 293.975 466.746 295.266C467.001 295.626 467.569 295.338 467.865 295.755C468.25 296.299 468.134 297.07 468.463 297.612C469.206 298.838 469.949 298.689 470.69 300.094C474.559 307.425 479.706 314.255 483.42 321.744C485.189 325.308 486.784 328.933 488.63 332.466C490.329 335.718 491.299 338.482 490.088 342.033C487.28 350.27 484.277 358.658 480.596 366.614C480.412 366.351 480.229 366.088 480.044 365.825ZM284.148 427.31C283.884 427.714 283.621 428.118 283.357 428.523C282.772 425.49 284.331 426.897 284.148 427.31ZM271.76 421.632C270.916 421.405 271.281 420.162 271.308 419.631C271.842 420.231 272.366 420.842 272.81 421.5C272.46 421.544 272.11 421.588 271.76 421.632ZM237.81 409.974C238.696 409.526 239.334 409.205 240.339 408.697C239.318 410.491 239.318 410.491 237.81 409.974ZM184.398 251.964C183.043 254.959 187.174 273.454 183.328 274.058C182.777 272.435 182.708 267.965 180.424 267.432C177.591 266.769 177.871 271.371 177.484 272.794C171.667 269.148 169.084 262.109 166.305 256.53C162.764 249.419 159.977 242.023 157.315 234.613C155.04 228.278 153.158 221.831 150.858 215.507C149.413 211.534 147.856 207.552 146.884 203.458C146.673 202.569 145.843 200.313 146.549 199.467C147.574 198.238 151.265 199.646 152.455 199.969C160.171 202.061 168.176 202.961 176.104 204.176C184.912 205.526 193.7 206.921 202.562 207.967C204.776 208.229 206.992 208.476 209.209 208.717C210.646 208.873 212.823 208.717 214.188 209.298C216.952 210.473 217.541 214.969 218.567 217.301C222.397 226.003 226.905 234.431 230.938 243.054C234.571 250.822 237.324 259.087 242.547 266.16C238.652 264.605 233.716 256.382 229.364 261.122C227.493 263.16 227.965 265.845 228.115 268.284C228.331 271.81 228.399 275.362 228.399 278.894C224.14 277.897 221.279 273.542 219.043 270.457C215.989 266.244 214.065 262.273 212.713 257.443C212.127 255.351 210.574 255.299 209.194 254.047C208.307 253.243 207.861 252.159 206.59 253.329C204.991 254.8 206.054 258.873 206.331 260.61C206.986 264.743 209.136 271.103 207.046 274.986C204.225 280.227 196.666 267.04 195.78 265.136C195.33 264.166 187.288 245.574 184.398 251.964ZM179.117 162.151C179.593 162.216 180.069 162.282 180.545 162.348C180.162 162.653 179.363 163.723 178.711 163.44C178.846 163.011 178.982 162.581 179.117 162.151ZM204.344 157.274C204.195 157.422 204.045 157.569 203.896 157.717C203.213 156.948 203.455 155.827 203.455 154.937C204.358 155.428 204.578 156.411 204.344 157.274ZM206.383 165.808V168.321C204.492 167.583 204.454 167.202 206.383 165.808ZM208.68 169.004C207.355 168.676 207.196 168.412 207.383 166.578C207.932 167.605 208.293 168.283 208.68 169.004ZM216.307 187.621C215.751 188.909 212.505 185.841 212.624 184.923C212.738 184.047 213.236 183.786 213.924 184.349C214.151 184.536 213.814 185.21 213.959 185.444C214.483 186.29 215.538 186.983 216.307 187.621ZM216.343 195.377C215.53 197.206 214.08 194.325 216.205 194.246C216.344 194.614 216.39 194.991 216.343 195.377ZM214.765 192.492C214.45 192.114 214.144 191.731 213.847 191.34C214.942 191.539 215.811 192.976 216.965 192.018C216.829 193.479 215.676 193.52 214.765 192.492ZM143.989 168.732C142.229 167.001 153.706 165.786 155.091 165.489C165.139 163.331 174.625 160.207 184.02 156.375C188.502 154.547 192.961 152.696 197.337 150.67C199.227 149.795 201.818 149.053 203.396 147.74C204.523 146.803 204.478 146.093 205.942 145.535C207.186 145.062 207.248 145.508 207.817 144.653C208.159 144.139 208.546 142.257 208.346 141.701C207.801 140.181 206.994 141.413 205.862 140.366C205.047 139.611 205.245 137.465 205.467 136.576C205.756 136.999 205.922 137.459 205.966 137.954C207.194 137.409 206.699 135.536 208.043 135.229C209.458 134.906 209.312 135.899 209.681 136.915C210.751 135.5 209.893 134.293 209.314 132.911C212.258 132.415 215.42 131.934 218.337 132.816C220.447 133.453 222.253 135.02 224.48 135.323C226.662 135.619 227.081 134.688 228.689 133.742C229.994 132.975 231.116 133.879 231.788 133.299C231.373 135.256 227.812 134.988 228.25 137.434C228.448 138.534 229.945 139.523 230.627 140.38C231.482 141.455 232.164 142.643 232.747 143.854C235.014 148.566 235.983 154.034 236.934 159.073C239.282 171.51 239.579 184.192 241.787 196.669C242.839 202.612 243.893 208.559 244.44 214.56C244.577 216.061 245.594 219.464 244.762 220.908C244.058 222.126 242.492 222.13 241.118 222.425C238.428 223 235.903 223.783 233.323 224.649C231.011 225.426 230.339 225.902 228.854 223.942C227.419 222.046 226.709 219.785 225.681 217.706C224.373 215.057 222.792 212.501 221.274 209.945C224.256 209.945 225.971 208.496 225.892 205.767C225.806 202.744 223.046 202.026 221.909 199.542C220.802 200.837 220.709 200.873 219.921 199.644C219.019 198.239 218.41 195.668 217.858 194.073C218.253 194.453 218.648 194.832 219.042 195.211C220.037 193.978 218.479 192.033 217.957 190.871C217.153 189.077 217.011 187.138 216.248 185.349C215.832 184.373 214.868 183.605 214.631 182.586C214.474 181.904 215.106 181.256 214.956 180.563C214.695 179.358 213.182 178.066 212.711 176.84C211.987 174.955 211.201 173.295 210.303 171.458C209.088 168.972 209.37 166.364 209.148 163.718C208.917 160.975 207.942 158.35 207.597 155.619C207.359 153.732 208.105 151.356 206.52 149.845C206.334 152.357 207.134 152.318 204.513 152.77C201.53 153.284 199.367 155.286 196.546 155.884C195.965 156.007 195.541 153.719 195.768 156.84C194.415 155.94 191.527 157.057 192.605 157.591C191.788 158.378 190.18 157.834 189.912 159.013C187.137 156.583 182.687 164.854 179.383 160.539C178.838 163.464 176.487 165.192 173.332 165.579C171.745 165.773 170.767 166.25 169.359 166.678C169.074 166.764 168.969 167.135 168.63 167.235C168.114 167.386 167.355 166.928 166.982 167.017C166.224 167.199 165.381 168.097 164.323 168.276C163.109 168.481 161.786 168.386 160.571 168.26C159.052 168.101 158.384 167.939 156.897 168.39C155.559 168.796 154.126 169.932 152.885 168.695C150.935 171.734 146.285 170.991 143.989 168.732ZM234.146 132.054C232.67 131.895 233.695 130.751 234.378 130.408C236.235 129.476 235.739 132.226 234.146 132.054ZM152.428 142.961C161.09 131.704 175.906 123.969 188.942 117.461C196.062 113.907 203.33 110.461 210.807 107.552C214.524 106.106 218.284 104.716 222.08 103.446C224.107 102.767 226.158 102.151 228.211 101.537C228.778 101.367 229.811 100.847 230.405 100.898C230.302 100.889 231.881 101.275 231.571 101.397C232.588 100.998 233.072 99.9579 234.268 99.542C235.612 99.0741 237.324 98.8807 238.763 98.8385C240.037 98.8008 241.14 99.275 242.353 99.312C243.151 99.336 243.829 98.9948 244.609 98.9446C245.009 98.9195 244.974 99.4581 245.214 99.4895C245.319 99.5032 246.383 99.1432 246.393 99.1494C246.781 99.3737 247.124 100.249 247.474 100.591C248.479 101.571 249.953 102.254 251.293 102.77C252.923 103.397 256.9 104.028 255.057 106.351C256.366 106.181 256.975 107.247 255.336 107.517C254.448 107.663 254.069 106.931 253.41 106.431C251.886 105.278 248.189 103.638 245.995 103.712C244.76 103.753 243.806 104.597 242.668 104.904C241.548 105.205 240.993 104.738 240.01 104.812C238.861 104.898 238.121 105.774 237.026 105.929C236.001 106.076 235.429 105.446 234.513 105.49C233.424 105.541 232.368 106.394 231.328 106.68C229.674 107.136 228.459 107.446 226.844 108.201C223.714 109.664 220.218 110.22 216.993 111.48C214.414 112.487 211.489 113.017 209.103 114.131C206.449 115.368 203.783 116.601 201.184 117.946C199.307 118.918 195.49 119.252 193.421 119.005C193.391 122.439 191.515 120.032 189.624 121.536C190.071 121.891 190.579 122.152 191.146 122.32C189.097 123.057 187.203 123.974 185.218 124.821C183.167 125.698 180.978 125.891 179.63 127.548C178.389 129.076 178.809 128.288 176.957 128.889C176.107 129.165 175.368 130.007 174.755 130.573C173.702 131.545 173.469 133.017 172.868 131.019C172.693 131.263 172.003 132.814 171.868 132.853C171.115 132.133 171.007 132.987 170.586 133.292C170.807 133.956 170.491 134.39 169.636 134.596C169.203 134.886 168.765 135.17 168.322 135.448C166.716 136.452 164.671 137.313 163.54 138.808C162.706 138.365 162.397 137.6 162.905 136.819C161.311 138.142 159.409 139.502 158.977 141.54C158.779 141.367 158.548 141.243 158.286 141.166C157.638 141.56 158.481 142.733 158.892 142.997C160.682 142.371 158.445 142.598 159.647 142.699C159.99 142.728 160.342 142.959 160.72 142.963C161.829 142.976 162.871 142.928 163.971 142.775C166.395 142.439 168.778 141.812 171.125 141.183C173.682 140.498 176.238 139.815 178.738 138.975C180.797 138.283 182.821 137.513 184.845 136.745C185.653 136.438 186.46 136.127 187.27 135.822C188.807 135.243 189.618 134.293 189.403 135.921C190.627 135.738 191.688 134.179 192.628 133.543C193.951 132.649 195.438 131.982 197.005 131.526C197.639 131.341 198.106 131.106 198.762 131.104C199.083 131.103 199.276 131.92 199.479 131.876C200.885 131.569 200.244 130.867 200.876 129.856C202.259 127.646 205.983 126.424 208.27 125.169C209.722 124.372 210.752 123.3 212.092 122.417C212.719 122.005 213.175 121.822 213.832 121.647C214.334 121.513 214.951 122.554 215.278 121.508C214.108 121.077 213.143 120.546 212.018 120.232C211.221 120.009 212.177 119.246 210.915 119.7C210.408 119.883 210.234 120.766 210.048 121.136C208.639 120.002 204.676 121.177 203.004 121.651C202.889 121.684 202.373 121.439 202.129 121.453C201.164 121.512 200.492 122.682 199.857 123.186C198.168 124.527 196.335 125.087 194.255 125.852C194.809 123.127 198.877 122.011 201.252 120.968C204.722 119.442 207.954 117.495 211.754 116.674C214.285 116.127 217.639 115.687 218.732 118.338C219.386 119.927 219.469 123.875 217.255 124.608C217.021 123.866 217.77 123.232 217.995 122.589C215.792 123.347 215.429 125.731 213.756 126.975C212.815 127.674 212.479 127.899 212.024 128.574C211.572 129.245 211.356 129.871 210.297 130.585C208.568 127.275 208.86 131.809 207.983 132.377C208.336 132.149 206.553 132.817 206.766 132.746C206.684 132.773 205.907 131.64 205.404 131.664C204.487 131.708 204.663 132.617 204.222 133.074C202.725 134.623 200.792 135.638 198.383 135.395C198.327 136.496 198.704 137.813 197.034 137.913L196.815 135.471C195.906 136.299 194.709 137.086 193.97 138.045C193.128 139.136 193.218 139.809 191.821 140.536C190.362 141.297 187.257 142.795 185.521 142.924C185.95 142.376 185.874 141.88 185.294 141.438C184.42 142.249 183.131 142.329 182.201 143.062C185.429 144.277 179.721 144.214 178.997 144.351C178.513 144.444 178.09 144.842 177.599 144.931C176.947 145.05 176.863 144.433 176.302 144.629C175.481 144.915 175.814 145.724 174.955 146.13C174.338 146.422 173.292 146.418 172.596 146.695C170.937 147.357 167.404 148.823 166.283 147.045C165.714 150.095 159.912 148.239 157.764 148.033C154.823 147.752 149.7 146.508 152.428 142.961ZM164.783 111.752C165.199 111.432 165.616 111.455 166.032 111.823C165.452 109.062 169.94 107.722 171.897 106.549C174.494 104.992 177.551 101.972 180.949 102.211C180.369 102.598 179.791 102.985 179.212 103.372C180.039 103.468 180.865 103.564 181.69 103.661C181.224 104.277 180.758 104.893 180.291 105.508C179.529 101.722 175.55 106.502 174.399 107.199C173.239 107.9 172.082 108.423 171.052 109.278C170.031 110.125 169.109 111.651 167.421 110.889C167.267 113.051 165.338 112.465 164.003 113.662C163.947 112.911 164.425 112.38 164.783 111.752ZM182.412 100.958C186.519 99.5717 190.095 97.0092 193.966 95.1789C197.663 93.4301 201.435 91.8599 205.193 90.2286C207.099 89.4007 210.592 87.26 212.771 88.3509C215.712 89.8241 211.663 90.2994 210.612 90.8095C210.223 88.5409 208.861 90.5961 209.675 91.8582C207.431 90.9852 202.537 94.4006 200.396 95.3426C199.911 95.556 200.129 95.6793 199.578 95.9303C199.442 95.9919 198.037 96.2801 197.635 96.4016C195.62 97.0092 194.291 96.5265 193.423 98.7181C193.241 98.2023 193.06 97.6859 192.878 97.1696C191.616 99.7217 187.781 100.839 185.329 102.348C184.697 102.737 182.891 104.246 182.09 103.934C180.974 103.499 181.421 101.291 182.412 100.958ZM256.508 108.652C258.242 108.755 256.57 109.484 257.046 109.966C256.993 109.911 258.091 110.755 257.947 110.524C258.141 110.835 258.606 110.824 258.844 111.457C259.665 113.635 256.083 115.885 254.875 117.121C252.527 119.525 251.169 122.569 248.722 124.896C247.617 125.947 246.517 126.672 244.985 127.064C243.913 127.339 242.778 127.045 241.793 127.974C240.999 128.722 241.179 129.147 240.302 129.545C238.757 130.246 238.076 129.631 236.572 131.146C235.278 127.977 238.996 127.982 240.936 126.211C243.614 123.767 246.548 121.3 249.06 118.684C251.29 116.361 252.184 114.323 253.243 111.5C253.577 110.61 253.94 108.701 254.861 108.143C256.294 107.273 255.434 108.588 256.508 108.652ZM265.036 190.973C269.584 186.391 275.226 182.276 281.342 179.515C283.528 178.528 286.639 177.233 288.905 178.753C291.127 180.242 290.649 183.213 289.753 185.234C288.895 184.93 289.705 182.09 289.26 181.388C288.288 179.857 286.191 180.67 284.765 181.183C283.094 181.785 281.603 182.449 280.28 183.54C279.743 183.982 278.715 184.379 278.371 184.683C277.854 184.49 277.55 184.63 277.459 185.105C277.565 185.396 277.552 185.683 277.42 185.964C277.345 186.054 276.673 185.687 276.577 185.76C276.141 186.096 275.733 186.492 275.304 186.804C274.444 187.431 273.712 187.728 272.919 188.602C271.389 190.291 269.365 191.281 267.828 192.891C267.48 193.255 267.064 194.187 266.986 194.269C266.209 195.086 265.057 195.733 264.181 196.598C262.665 198.092 261.047 199.095 259.298 200.376C258.545 200.928 257.666 201.522 257.165 202.288C256.937 202.638 256.809 204.555 256.801 204.563C255.085 206.257 255.419 202.853 255.548 202.426C256.941 197.833 261.65 194.385 265.036 190.973ZM255.674 222.028C255.887 222.749 256.063 223.345 256.279 224.077C254.919 223.072 254.919 223.072 255.674 222.028ZM254.205 224.39C253.705 224.843 253.203 225.294 252.697 225.742C251.584 224.683 254.409 224.208 254.205 224.39ZM253.499 206.153C252.967 208.092 251.019 210.442 249.68 211.973C249.828 211.804 248.538 212.143 248.391 212.22C247.914 212.469 249.056 214.081 247.403 213.361C246.817 213.66 247.971 214.877 247.175 215.422C244.872 210.695 251.16 206.6 253.594 203.091C254.785 204.075 253.798 205.066 253.499 206.153ZM238.541 231.711C240.22 232.1 241.093 231.856 242.227 230.37C242.908 229.478 243.157 227.897 244.716 229.232L244.991 227.515C247.216 228.338 247.029 231.309 248.001 232.956C248.474 231.093 249.595 225.889 253.026 226.723C256.877 227.661 250.467 233.628 249.872 235.09C248.562 233.259 249.077 234.962 248.078 235.22C247.222 235.442 245.883 234.873 244.841 234.925C241.673 235.08 238.89 236.364 235.996 237.451C235.263 235.671 234.531 233.891 233.798 232.112C235.502 232.23 239.025 228.145 239.525 231.114C238.262 230.916 237.906 230.966 237.29 232.002C237.684 231.823 238.1 231.726 238.541 231.711ZM245.652 254.94C245.647 254.925 248.929 255.108 249.222 255.012C251.468 254.273 250.637 251.978 251.096 250.356C252.022 251.123 251.532 252.522 251.817 253.514C252.152 254.681 253.123 255.675 253.213 256.922C253.417 259.74 250.85 259.114 248.904 260.026C247.242 260.806 247.057 261.786 245.653 259.686C245.273 259.117 244.456 257.637 244.54 256.91C244.622 256.19 245.888 255.591 245.652 254.94ZM248.297 267.134L247.389 266.218C250.094 266.964 248.499 265.843 249.121 264.309C251.197 265.554 252.89 266.834 254.532 264.341L257.369 274.652C255.464 275.055 253.005 272.403 251.698 271.492C250.943 270.965 246.753 268.937 249.269 268.346C248.944 267.942 248.621 267.538 248.297 267.134ZM266.819 234.759C265.244 236.108 263.657 236.864 261.942 237.924C260.438 238.855 260.956 239.924 259.652 240.962C258.786 241.653 256.756 242.356 255.686 242.882C253.781 243.82 252.074 243.999 250.113 242.949C250.647 246.818 247.705 247.121 244.044 247.887C242.298 248.253 241.264 248.812 240.006 247.371C239.144 246.385 238.806 244.6 239.878 243.698C241.581 242.264 246.119 242.759 248.304 241.858C249.962 241.174 251.651 237.322 253.697 238.724C252.641 237.209 253.871 236.801 254.788 235.721C255.794 234.537 256.411 233.153 257.451 231.979C259.427 229.747 262.461 227.502 265.267 226.156C267.737 224.972 269.034 225.81 269.403 228.296C269.59 229.547 269.583 231.409 268.805 232.518C268.558 232.872 267.74 232.876 267.493 233.208C267.061 233.788 267.457 234.212 266.819 234.759ZM295.798 204.751C297.768 206.125 297.576 209.012 297.887 210.978C298.324 213.749 298.007 216.431 297.96 219.254C297.911 222.211 296.3 224.137 295.542 226.909C294.7 229.992 293.612 231.625 291.722 234.213C293.772 234.503 290.721 240.017 290.218 240.731C289.672 241.506 285.27 245.076 287.157 245.076C286.116 246.313 284.982 247.583 283.945 248.785C283.536 249.259 282.82 249.445 282.498 249.779C281.843 250.459 281.803 251.065 281.334 251.858C280.621 253.061 280.387 252.74 279.45 253.613C278.803 254.216 278.379 255.012 277.744 255.59C275.697 257.452 275.436 255.927 274.291 254.493C274.116 254.877 273.804 255.118 273.356 255.215C272.998 253.593 275.465 251.953 276.503 250.967C278.202 249.352 279.755 247.571 281.258 245.804C284.475 242.018 287.366 237.996 289.648 233.687C292.075 229.101 294.014 224.138 295.021 219.135C295.788 215.322 296.518 208.781 290.862 207.811C286.748 207.106 282.213 209.358 278.822 211.181C276.756 212.291 274.677 213.395 272.709 214.644C270.572 215.999 268.725 217.916 266.406 219.003C267.674 218.408 263.488 220.197 264.129 219.694C263.829 219.929 264.088 220.647 263.89 220.972C263.631 221.393 262.733 221.81 262.331 222.082C261.266 222.802 259.567 223.539 259.083 224.728C252.333 220.391 265.755 212.69 269.196 210.729C276.02 206.84 287.895 199.24 295.798 204.751ZM314.003 162.567C313.939 159.444 316.762 155.18 318.669 152.633C319.602 151.386 321.093 151.436 321.639 149.966C321.955 149.119 321.541 148.231 321.635 147.381C321.762 146.231 322.315 145.309 322.954 144.321C328.725 135.388 335.738 127.481 343.207 119.687C346.891 115.845 350.382 111.855 354.354 108.245C356.014 106.738 360.473 101.319 363.024 101.861C364.375 102.148 365.161 104.005 365.771 104.953C366.78 106.52 367.889 107.988 369.114 109.429C372.349 113.234 376.08 116.575 380.486 119.272C383.238 120.957 386.018 122.595 388.708 124.361C390.923 125.814 394.272 127.476 395.853 129.516C397.435 131.557 395.112 133.285 393.842 134.98C391.869 137.615 390.053 140.346 388.072 142.979C387.284 142.469 387.488 141.432 386.948 140.779C386.469 140.2 385.792 139.964 385.131 139.607C383.863 138.922 382.62 138.086 381.475 139.232C379.472 141.238 382.226 145.98 385.195 145.46C385.545 147.44 379.616 150.701 378.13 151.79C373.57 155.133 368.866 158.039 362.842 158.341C360.404 158.463 357.867 158.297 355.551 157.562C354.442 157.21 353.215 156.726 352.364 155.959C351.346 155.04 351.086 153.673 350.098 152.764C349.241 151.975 348.064 151.853 347.208 151.061C346.35 150.269 345.927 149.017 345.579 147.99C344.899 145.985 344.77 143.87 344.116 141.86C343.723 140.651 343.4 139.034 342.117 140.196C340.255 141.884 341.19 147.191 341.667 149.213C342.349 152.097 343.948 154.423 345.624 156.905C347.44 159.597 348.111 162.095 348.437 165.21C349.046 171.042 350.904 176.638 353.794 181.885C355.011 184.094 356.468 186.172 357.782 188.33C358.396 189.337 359.771 192.773 361.44 192.755C364.106 192.725 360.308 185.72 359.781 184.544C356.86 178.031 354.07 171.186 353.444 164.133C357.631 165.105 362.195 166.027 366.531 165.412C363.732 171.05 366.656 176.664 366.298 182.467C366.12 185.378 365.99 188.063 366.057 190.965C366.116 193.51 364.84 196.053 363.738 198.354C361.547 202.924 358.79 208.561 354.723 212.062C351.322 214.988 346.773 215.217 342.33 214.543C332.223 213.009 325.582 206.01 321.34 198.061C318.615 192.954 316.532 187.503 315.238 181.957C313.741 175.539 314.136 169.077 314.003 162.567ZM327.129 119.312C317.697 113.164 331.403 106.183 338.38 107.133C340.017 107.356 343.028 107.965 342.874 109.889C342.749 111.462 339.837 113.214 338.719 114.185C335.532 116.955 332.288 122.673 327.129 119.312ZM395.745 255.915C395.421 255.654 392.781 256.295 393.827 254.888C394.696 253.719 397.105 255.184 397.981 255.485C397.259 255.934 396.632 256.63 395.745 255.915ZM356.47 330.271C355.659 330.361 354.812 328.391 357.734 329.863C357.313 329.999 356.891 330.135 356.47 330.271ZM356.387 362.371C356.487 363.254 356.787 363.836 356.091 364.478C355.502 363.825 355.426 362.903 356.387 362.371ZM357.573 375.635C357.487 376.115 357.401 376.596 357.316 377.076C356.641 376.768 355.967 376.46 355.292 376.152C356.052 375.98 356.813 375.808 357.573 375.635ZM358.399 364.451C359.405 364.79 358.937 363.706 359.667 363.554C359.928 364.682 359.606 365.648 358.887 366.578C358.819 366.358 358.45 364.467 358.399 364.451ZM384.103 284.414C382.692 284.252 382.479 285.596 381.427 286.116C380.748 286.453 378.681 286.2 378.295 286.845C378.804 286.977 379.314 287.11 379.823 287.242C378.657 287.808 377.491 288.375 376.325 288.941C379.13 288.941 382.052 287.734 384.838 288.088C386.015 288.238 386.878 288.597 387.617 289.459C388.065 289.983 388.459 290.826 388.531 291.467C388.609 292.161 388.009 292.64 388.115 292.971C389.371 293.002 389.222 294.857 388.941 295.613C388.329 297.252 385.902 299.819 383.726 298.78C384.636 299.943 384.404 300.607 383.058 301.282C383.181 300.898 383.271 300.225 382.583 300.292C382.406 300.936 382.474 301.959 381.889 302.445C381.235 302.989 380.651 302.353 380.025 302.707C379.284 303.127 379.507 303.786 378.923 304.241C378.152 304.842 378.042 304.415 377.119 304.532C375.723 304.71 376.614 303.928 375.495 304.947C375.108 305.299 375.174 306.214 374.547 306.728C373.342 307.716 370.128 308.745 368.974 307.478C366.199 311.44 357.882 312.39 354.011 309.263C347.837 304.276 359.349 294.133 363.15 290.918C366.965 287.692 371.202 284.906 375.489 282.216C377.925 280.688 380.425 279.301 382.977 277.94C384.552 277.099 386.529 275.565 388.464 275.712C390.2 275.845 391.682 277.058 393.51 277.298C394.831 277.471 397.398 277.758 395.731 279.372C394.951 280.127 391.89 281.347 390.847 281.53C390.235 281.638 389.589 281.432 388.982 281.543C387.955 281.733 387.249 282.515 386.132 282.415C386.486 283.91 385.84 284.613 384.103 284.414ZM402.376 228.938C402.376 230.107 400.007 229.816 399.513 229.419C398.698 228.765 398.67 226.812 398.368 225.923C399.745 226.236 402.374 227.378 402.376 228.938ZM383.293 190.369C388.269 186.685 393.501 183.307 399.031 180.332C401.012 179.267 403.808 177.118 406.268 177.387C407.3 177.5 409.433 178.567 408.656 179.744C408.511 179.964 407.363 180.053 407.008 180.213C406.606 180.393 406.29 180.892 405.917 181.139C403.333 182.846 400.228 183.896 397.636 185.644C395.505 187.081 393.519 188.687 391.225 189.92C389.025 191.101 386.726 191.849 384.637 193.158C384.678 193.132 381.92 194.025 382.461 194.188C380.039 193.458 382.597 190.886 383.293 190.369ZM416.468 188.997C419.424 187.936 422.316 186.648 425.411 185.935C426.955 185.579 428.54 185.311 430.139 185.472C430.41 185.043 430.772 184.948 431.224 185.187C431.577 185.676 432.042 186.051 432.62 186.313C433.501 186.923 436.747 187.721 436.099 189.069C435.67 189.961 432.415 190.035 431.522 190.236C428.83 190.84 426.319 192.199 423.545 192.533C423.285 192.564 422.435 192.28 422.426 192.282C421.343 192.495 420.442 193.506 419.513 193.991C417.511 195.035 414.636 195.21 413.199 197.011C417.853 199.853 421.89 197.035 425.982 194.889C428.433 193.604 431.064 192.677 433.743 191.853C435.142 191.423 436.555 190.975 437.974 190.597C438.561 190.405 439.164 190.266 439.784 190.181C440.36 190.078 440.772 190.267 441.021 190.748C442.736 190.697 442.883 189.727 443.916 191.535C445.371 194.085 443.144 193.955 441.052 194.268C438.15 194.702 435.198 195.679 432.338 196.327C431.679 196.476 425.896 197.684 425.889 197.727C425.627 199.371 442.225 197.848 443.65 197.602C446.164 197.166 448.861 195.928 451.464 196.227C453.463 196.455 458.016 199.097 454.828 200.852C454.2 198.145 452.046 200.381 450.921 201.294C449.422 202.51 447.275 202.393 445.22 202.87C442.409 203.52 435.213 205.961 433.217 202.849C433.848 205.577 422.378 204.191 420.801 204.1C419.264 204.012 417.279 204.306 415.794 203.912C414.824 203.654 414.285 203.087 413.373 202.959C413.15 203.176 412.882 203.323 412.57 203.402C412.108 203.191 411.691 202.923 411.318 202.598C408.246 201.326 403.493 200.623 405.2 196.572C406.81 192.751 412.563 190.399 416.468 188.997ZM445.26 191.359C445.337 191.121 445.414 190.883 445.49 190.644C445.499 191.374 447.431 191.686 447.208 192.631C446.713 194.724 444.484 191.579 444.293 191.236C444.616 191.277 444.937 191.318 445.26 191.359ZM457.055 194.837C457.279 195.694 459.848 197.52 459.211 197.941C458.198 196.701 455.399 197.264 457.055 194.837ZM413.722 273.084C414.662 271.404 417.506 274.265 417.205 271.396C418.751 271.523 417.786 272.582 419.639 272.117C420.333 271.942 420.802 271.249 421.648 271.089C421.874 271.046 422.849 271.116 423.185 271.107C424.299 271.076 428.665 270.964 425.66 269.648C427.342 268.646 427.549 269.154 429.068 270.072C428.678 268.174 430.912 269.252 431.952 269.488C431.21 268.406 433.051 267.255 433.648 266.523C433.434 267.65 433.547 268.912 435.357 268.191C435.808 268.012 435.707 267.215 436.065 267.085C436.719 266.847 437.086 267.28 437.321 267.256C437.552 267.232 438.039 267.349 438.525 267.185C439.156 266.971 438.851 266.207 439.652 266.094C440.173 266.02 440.554 266.71 441.19 266.716C441.517 266.719 442.063 266.42 442.311 266.436C442.355 266.439 442.666 265.763 443.047 265.747C443.606 265.722 443.833 267.07 444.037 267.332C445.015 268.582 446.316 269.397 447.815 270.063C445.102 272.304 439.628 272.067 436.217 272.822C434.368 273.232 432.792 273.823 431.101 274.584C430.693 274.823 430.341 275.116 430.048 275.463C429.808 275.32 429.568 275.177 429.329 275.034C428.402 275.085 427.525 274.672 426.482 274.831C423.26 275.32 420.738 277.495 417.463 277.979C415.992 278.197 414.783 278.501 413.824 277.352C412.983 276.344 413.123 274.156 413.722 273.084ZM409.304 259.691C410.034 260.248 409.156 262.059 410.569 261.862C411.573 261.722 411.373 260.32 412.161 260.023C413.195 259.633 413.82 260.558 414.793 260.472C416.606 260.311 416.502 258.885 414.97 258.259C416.563 257.88 417.074 259.577 418.484 259.561C420.337 259.541 419.895 257.572 421.471 257.246C422.154 257.104 421.926 258.008 422.369 258.12C423.255 258.344 423.873 257.959 424.657 257.62C425.359 257.317 425.858 256.732 426.625 256.533C426.974 256.442 427.861 256.609 428.117 256.44C428.633 256.101 429.096 254.781 429.604 254.606C429.5 254.642 431.165 255.394 431.404 255.465C431.258 256.022 430.919 256.088 430.387 255.664C430.387 256.922 434.268 257.314 433.472 255.759C435.571 256.542 434.008 256.945 433.798 258.037C433.715 258.477 433.431 258.465 433.515 258.929C433.554 259.143 434.654 258.959 434.64 259.25C434.548 261.128 427.904 261.705 426.646 261.871C424.04 262.214 421.574 262.791 419.062 263.501C417.192 264.03 413.968 265.545 411.978 265.451C409.116 265.315 408.743 261.951 409.304 259.691ZM402.909 240.531C402.211 238.442 404.45 234.127 407.366 234.666C408.083 234.799 408.26 235.334 408.816 235.571C409.592 235.903 410.855 235.729 411.528 236.072C413.038 236.841 412.277 238.802 413.79 239.511C411.402 240.032 404.018 243.851 402.909 240.531ZM405.672 248.646C406.701 248.148 408.369 248.084 409.07 247.126C409.419 247.344 410.08 248.667 410.706 248.465C410.999 248.371 411.301 247.653 411.28 247.654C411.838 247.64 411.949 246.959 412.802 247.036C413.585 247.106 414.462 247.954 415.159 248.27C415.039 246.168 415.637 245.967 417.529 244.842C417.944 244.596 418.29 243.67 418.673 243.296C418.307 245.502 419.23 245.514 421.185 245.845C423.636 246.261 425.163 247.446 426.145 249.58C424.056 249.213 421.362 249.654 420.539 251.677C418.872 248.933 412.813 252.72 410.853 253.495C409.398 254.071 407.705 254.844 406.486 253.503C405.627 252.558 406.119 251.422 406.137 250.582C406.142 250.319 406.444 250.303 406.416 249.911C406.381 249.41 405.657 249.209 405.672 248.646ZM427.973 291.793C427.422 291.981 424.582 292.087 424.564 291.24C424.549 290.491 429.575 291.245 427.973 291.793ZM423.361 289.052C421.213 290.245 418.809 286.041 418.019 284.83C420.273 285.09 421.373 283.392 422.7 282.101C423.963 284.594 425.881 283.277 427.898 282.444C430.277 281.462 432.884 281.455 435.322 280.667C436.082 280.421 436.783 280.055 437.526 279.774C438.124 279.573 438.72 279.366 439.313 279.154C439.734 278.812 439.884 278.39 439.762 277.891C439.562 277.471 439.698 277.205 440.17 277.096C440.731 277.246 441.304 277.334 441.889 277.358C442.828 277.19 444.178 276.392 443.044 275.531C444.259 274.537 445.476 275.526 446.646 275.961C446.368 275.247 446.091 274.533 445.813 273.82C446.393 274.042 448.116 276.21 448.291 276.198C449.405 276.122 449.289 274.776 449.928 274.233C450.298 274.644 450.403 277.702 451.855 276.672C452.476 276.231 451.139 274.731 450.81 274.389C452.471 274.727 453.921 276.513 454.37 277.899C453.581 278.002 452.852 277.859 452.183 277.47C451.754 279.401 455.722 278.619 456.364 279.627C457.622 281.602 449.44 282.974 448.374 283.157C446.241 283.523 443.723 283.66 441.768 284.511C439.895 285.327 439.451 285.56 437.262 285.713C434.764 285.888 432.326 286.629 429.909 287.207C427.81 287.708 425.221 288.019 423.361 289.052ZM469.027 218.364C471 217.724 477.645 214.405 479.337 215.882C479.158 215.725 480.557 218.328 480.542 218.164C480.663 219.518 480.626 220.063 478.776 220.712C477.451 221.176 476.297 220.189 475.105 220.581C473.796 221.012 474.712 221.774 474.038 222.307C473.299 222.89 471.875 223.143 470.956 223.398C468.707 224.024 466.439 224.547 464.2 225.222C459.644 226.594 454.82 227.871 450.138 228.841C446.639 229.567 440.701 231.369 437.477 229.24C437.162 230.45 436.393 230.285 435.325 230.461C434.487 230.599 432.972 230.973 432.228 230.992C430.988 231.025 427.542 230.732 428.016 229.166C427.886 229.597 430.697 228.121 430.21 228.029C431.404 228.255 431.017 227.714 431.995 227.413C433.273 227.02 434.608 227.041 435.912 226.624C439.2 225.574 441.957 224.212 445.428 223.554C453.354 222.052 461.38 220.843 469.027 218.364ZM151.267 380.172C150.625 380.187 150.125 378.544 152.079 379.717C151.809 379.869 151.538 380.02 151.267 380.172ZM135.832 378.045C134.959 378.246 134.61 377.807 134.788 376.728C136.006 376.294 136.354 376.733 135.832 378.045ZM123.916 375.843C123.692 374.881 124.484 374.664 125.202 374.232C125.129 375.507 125.129 375.507 123.916 375.843ZM93.9333 367.927C92.7255 367.688 91.1161 366.624 90.8393 368.41C90.6373 367.997 89.6062 366.051 90.0489 365.601C90.2801 365.365 91.1554 366.455 91.0623 366.347C92.1194 364.421 93.9416 366.745 94.96 367.433C94.618 367.598 94.2754 367.763 93.9333 367.927ZM407.968 155.051C408.385 154.257 408.877 154.005 409.442 154.295C408.554 156.153 405.547 157.16 407.968 155.051ZM428.863 137.612C429.608 138.871 428.488 139.402 427.688 140.448C428.156 139.32 428.48 138.538 428.863 137.612ZM519.675 260.423C522.362 260.423 528.085 259.145 529.705 261.912C530.777 260.032 531.996 263.557 532.926 264.123C533.031 264.187 533.701 263.725 534.013 263.895C534.483 264.151 534.888 264.849 535.157 265.264C535.968 266.515 536.317 268.002 536.767 269.378C532.075 269.378 527.263 268.394 522.574 268.036C519.496 267.801 516.479 267.794 513.397 267.943C512.785 267.973 511.569 267.791 511.045 267.895C510.513 268 509.548 268.977 508.962 268.82C509.873 270.361 521.545 274.092 522.436 272.385C521.381 271.81 519.037 271.368 519.039 269.979C519.041 268.422 521.238 268.424 522.402 268.47C524.948 268.57 529.212 269.334 530.255 271.719C530.703 272.741 530.84 275.316 530.349 276.303C530.031 276.94 529.494 277.706 528.643 277.836C528.294 277.889 527.791 277.471 527.738 277.481C525.991 277.815 522.758 279.079 520.853 277.297C519.479 278.898 512.861 277.149 510.835 276.545C507.292 275.488 502.413 274.037 500.261 271.059C497.638 267.429 502.971 264.361 506.034 262.885C510.219 260.869 515.002 260.425 519.675 260.423ZM537.556 268.816C538.38 269.026 539.203 269.236 540.026 269.445C539.806 270.746 536.557 269.717 537.556 268.816ZM562.453 316.103C562.706 310.891 561.033 306.301 560.068 301.26C559.828 300.01 560.073 297.826 559.019 296.798C558.012 295.816 555.766 296.614 555.676 294.878C554.685 295.923 554.785 296.142 553.564 294.939C553.786 295.455 553.819 295.979 553.66 296.513C552.902 296.122 550.155 294.822 550.386 296.6C548.127 296.149 548.781 294.876 547.492 293.905C547.309 293.767 546.574 294.257 546.287 294.048C545.769 293.67 545.512 293.326 545.075 292.839C544.52 293.444 543.763 293.881 543.084 294.359C542.69 293.585 541.922 293.016 540.998 292.828C541.861 294.455 543.996 296.563 541.068 297.489C539.321 298.041 536.459 297.364 534.608 297.493C527.749 297.972 520.236 296.625 513.604 295.153C506.79 293.641 499.901 291.507 493.773 288.387C492.467 287.721 491.645 286.934 490.52 286.109C489.427 285.307 488.632 285.18 487.317 284.667C484.952 283.744 482.788 282.263 480.989 280.613C477.12 277.065 473.525 272.425 474.602 267.23C475.676 262.052 479.627 258.005 483.855 254.596C488.848 250.569 494.485 247.206 500.468 244.495C503.143 243.284 509.986 238.732 512.629 241.396C514.319 243.097 513.369 245.268 511.061 245.646C510.491 245.74 509.896 245.396 509.321 245.631C508.491 245.971 508.783 246.373 508.44 246.657C507.846 247.149 507.214 247.917 506.325 248.344C503.223 249.834 500.225 251.014 497.26 252.829C495.893 253.664 494.578 254.024 493.373 254.754C492.175 255.479 491.902 256.679 490.291 255.939C490.865 258.05 487.419 260.31 486.069 261.604C483.977 263.607 481.469 266.163 482.445 269.126C484.356 274.926 492.989 279.331 498.514 281.881C505.409 285.063 513.013 287.595 520.69 288.644C524.506 289.164 528.451 289.486 532.296 289.817C535.29 290.074 539.885 289.132 542.039 291.561C542.105 288.729 551.925 288.978 554.015 288.616C549.825 275.713 541.597 264.24 532.8 253.522C528.483 248.26 524.244 242.849 519.323 238.025C513.935 232.745 507.78 228.025 501.932 223.167C490.462 213.636 477.489 205.131 464.289 197.638C451.118 190.163 437.479 182.806 423.05 177.477C406.57 171.39 389.22 167.386 371.852 163.977C374.208 161.272 378.04 159.953 381.057 157.974C382.113 157.282 383.541 155.619 384.913 155.392C386.399 155.145 387.569 156.585 388.626 157.308C391.662 159.383 393.762 158.502 397.239 158.377C399.32 158.302 404.247 159.346 405.124 156.811C406.29 158.21 404.599 159.332 403.733 160.357C404.363 161.149 404.871 160.328 405.494 160.204C405.686 160.061 405.877 159.917 406.069 159.774C406.378 159.371 406.657 159.369 406.904 159.766C407.275 160.269 407.649 160.158 408.025 159.431C408.129 159.373 408.231 159.314 408.334 159.256C408.784 159.041 409.218 158.699 409.636 158.431C412.796 156.397 415.612 154.664 419.1 153.165C422.029 151.908 420.454 149.502 422.385 147.803C422.822 147.418 423.557 147.611 424.025 147.285C424.482 146.965 424.551 146.602 424.885 146.259C425.687 145.435 424.732 144.478 426.779 145.487L426.041 141.744C430.054 145.252 430.039 135.157 430.587 133.664C430.515 133.861 430.948 132.332 430.947 132.346C431.065 129.316 431.524 127.121 427.586 126.945C429.077 126.1 429.533 127.75 430.221 126.042C430.566 125.186 429.49 123.715 431.205 124.267C431.566 122.448 431.209 120.976 430.759 119.208C430.298 117.399 430.569 116.192 430.59 114.382C430.614 112.33 429.547 110.267 429.206 108.247C428.938 106.664 429.214 104.168 426.943 104.749C426.624 104.299 427.745 102.914 427.7 102.229C427.629 101.166 426.347 100.085 425.984 99.0639C425.451 99.5602 424.698 99.7257 423.972 99.5015C424.654 98.1139 424.013 97.6477 423.36 96.4512C422.986 95.766 423.212 95.0094 422.411 94.5182C421.952 94.2363 421.169 94.711 420.809 94.3806C420.038 93.6731 420.323 92.7346 419.792 91.8023C419.126 90.6332 417.606 89.7402 416.558 88.8627C410.667 83.9302 404.269 80.1604 396.433 78.2331C388.528 76.2886 379.311 75.5919 371.433 77.8348C368.284 78.7312 365.488 78.6393 362.654 80.3133C361.735 80.8565 361.636 80.711 361.169 81.6165C361.061 81.8276 362.04 82.3896 361.441 82.7348C360.79 83.1097 360.071 82.3474 359.739 81.7147C355.639 84.3883 351.797 87.9526 349.461 92.0396C347.141 96.1009 346.928 100.872 346.042 105.285C341.955 101.079 336.427 99.0627 330.417 101.085C325.178 102.847 321.119 106.72 320.094 111.737C319.469 114.796 320.152 117.894 321.694 120.654C322.361 121.846 323.168 123.166 324.394 123.969C325.364 124.604 327.025 124.515 327.482 125.659C328.181 127.412 324.139 131.199 323.09 132.734C321.192 135.512 319.428 138.38 318.085 141.414C313.271 135.287 308.662 128.596 303.188 122.948C298.022 117.616 291.863 112.835 285.822 108.329C273.285 98.976 260.249 90.1893 246.225 82.7382C233.167 75.8002 217.394 71.9483 202.175 73.3102C187.305 74.6413 175.921 83.1131 166.341 92.8841C147.922 111.671 136.64 138.448 135.538 163.457C135.207 170.969 135.842 178.384 137.902 185.671C138.883 189.14 138.74 192.553 139.31 196.067C139.954 200.031 141.067 203.981 142.143 207.865C146.242 222.658 151.465 237.439 157.325 251.742C160.373 259.18 164.059 266.451 169.047 273.01C171.351 276.04 174.335 278.41 176.814 281.287C179.219 284.077 179.854 287.501 180.383 290.925C181.651 299.133 182.492 307.377 183.255 315.634C183.579 319.133 183.957 322.601 184.471 326.076C184.919 329.106 183.791 328.957 180.962 329.986C181.536 327.263 168.019 329.115 166.742 329.301C165.353 329.503 163.883 329.506 162.789 329.667C161.566 329.846 160.369 330.106 158.96 330.069C156.89 330.016 153.013 329.539 152.222 331.92C151.678 329.16 148.085 332.178 150.743 331.666C148.014 331.941 145.229 331.483 142.467 331.715C139.302 331.98 136.109 332.232 132.965 332.661C130.777 332.959 128.689 333.719 126.497 333.939C123.692 334.221 120.764 334.195 117.932 334.42C107.484 335.25 96.6556 337.303 86.5001 339.654C84.1997 340.186 81.5567 340.564 79.3589 341.419C78.7705 341.647 78.241 342.159 77.6773 342.355C76.7323 342.684 76.8615 342.456 76.0223 342.607C70.9939 343.513 65.8066 344.991 60.779 346.152C57.9902 346.796 53.454 347.377 51.179 349.13C50.1592 349.915 49.2681 351.308 50.9022 352.201C52.2076 352.913 54.0709 351.776 55.1274 351.16C54.1862 353.37 52.4109 354.471 53.3698 356.985C54.1267 358.972 55.8355 361.42 58.4646 360.139C58.8168 360.877 58.9593 362.344 59.9961 362.615C60.9278 362.859 61.6023 361.795 62.515 362.046C62.8418 362.135 62.7177 362.692 63.0103 362.837C63.5145 363.087 64.0256 363.193 64.6032 363.369C65.0998 363.521 65.8991 363.833 66.4172 363.866C66.7459 363.887 67.5205 363.38 67.518 363.38C68.273 363.484 68.679 364.785 69.2224 365.161C69.928 365.649 70.5107 365.761 71.3942 365.938C73.231 366.305 75.5985 366.935 76.8108 365.241C76.5334 366.451 78.3594 366.332 79.165 366.485C79.0757 365.848 78.685 365.264 78.082 364.915C79.8833 365.022 79.153 366.635 80.4844 367.061C81.4331 367.364 81.3255 366.594 82.0513 366.508C83.0077 366.396 83.7335 367.021 85.227 366.444C85.5507 367.74 85.6691 369.047 87.4356 369.24C88.4724 369.354 90.89 367.667 90.7532 369.071C93.0694 368.459 93.9485 368.872 95.1589 370.711C95.3635 369.582 96.3534 369.91 97.2617 369.84C98.7013 369.73 98.7381 369.834 99.8541 369.1C99.956 369.033 100.834 367.221 101.224 368.347C101.399 368.851 100.24 370.038 99.8104 370.34C100.344 370.583 102.091 371.434 102.763 371.277C103.345 371.142 103.346 370.247 104.045 370.201C103.874 370.715 103.704 371.231 103.532 371.745C104.891 371.923 106.027 371.104 107.1 370.504C108.124 372.835 111.05 371.522 112.641 373.276C113.482 374.204 113.522 374.91 115.125 375.152C116.766 375.4 118.2 374.752 119.594 375.971C119.152 375.214 118.051 374.587 119.145 373.774C119.89 374.726 120.275 375.873 121.133 376.758C121.252 376.308 121.37 375.858 121.489 375.407C123.728 377.565 126.546 377.583 129.414 378.779V377.201C131.467 380.024 131.577 378.237 134.03 377.084C133.864 377.914 133.696 378.744 133.53 379.574C135.295 379.454 136.944 381.338 138.393 379.738C139.269 381.06 140.33 380.409 141.764 380.829C142.58 381.068 143.187 381.792 143.981 382.054C145.171 382.446 145.526 382.428 146.647 382.77C147.643 383.073 148.209 383.664 149.456 383.854C150.267 383.977 151.001 383.968 151.776 383.934C152.076 383.921 151.977 383.314 152.643 383.456C153.672 383.675 154.439 384.838 155.18 385.434C156.294 382.91 159.416 386.291 160.924 386.742C161.069 386.094 161.043 385.315 161.563 384.783C162.173 385.988 162.406 387.001 163.674 387.776C164.405 388.224 165.479 388.545 166.324 388.709C166.858 388.812 167.829 388.688 168.164 388.837C168.737 389.089 168.948 389.764 169.526 389.828C169.866 389.865 170.37 389.059 170.625 389.121C171.79 389.408 172.438 390.683 173.614 391.373C177.116 393.425 181.523 393.624 185.425 394.074C186.404 394.187 186.546 393.946 187.341 394.464C187.766 394.74 187.573 395.581 188.095 395.817C190.062 396.705 190.063 394.81 190.475 393.633C191.126 394.406 191.238 395.427 192.128 396.042C192.614 396.03 193.1 396.039 193.585 396.072C193.859 396.353 194.039 396.678 194.122 397.046C195.3 397.763 196.635 397.513 197.852 398.051C198.251 398.228 198.957 399.294 199.449 399.6C200.329 400.149 201.689 400.443 202.694 400.681C204.802 401.181 207.825 400.517 209.079 402.499C210.744 400.892 210.1 402.812 211.23 403.215C211.898 403.453 212.902 402.506 213.642 402.6C214.975 402.769 215.455 404.07 215.882 405.015C216.694 404.852 216.137 402.782 216.114 402.329C217.123 402.222 217.347 404.615 217.522 405.141C219.114 404.45 216.5 402.3 218.213 401.61C218.055 403.442 219.676 404.951 216.782 405.213C217.181 406.316 226.517 407.542 227.166 406.568C227.31 408.369 228.652 406.687 229.148 406.071C229.203 407.121 228.806 408.612 230.115 409.1C231.004 409.432 233.009 408.574 233.358 407.789C233.757 408.988 234.424 408.95 235.254 409.711C235.824 410.235 236.2 411.142 236.798 411.58C237.898 412.386 239.944 412.263 241.226 412.083C243.734 411.73 243.438 411.297 244.331 413.645C244.533 412.754 245.167 410.89 246.271 412.276C246.975 413.156 245.478 415.097 245.045 415.87C246.012 415.392 246.971 414.825 248.071 414.619C248.132 414.924 248.189 415.572 248.027 415.854C248.059 415.797 249.232 416.506 249.668 416.702C249.563 416.655 250.011 414.89 249.999 414.948C251.546 415.808 250.473 417.453 251.843 418.302C252.197 418.521 253.028 418.265 253.456 418.399C254.202 418.632 254.847 419.261 255.509 419.629C254.98 418.99 255.056 417.917 255.092 417.18C255.429 417.347 255.67 417.975 256.01 418.025C256.139 418.043 257.472 418.203 257.463 418.197C258.851 419.072 258.565 419.182 257.374 420.235C257.799 420.837 259.579 419.79 260.06 419.616C260.161 419.852 260.187 420.708 260.376 420.861C260.491 421.114 260.606 421.367 260.721 421.621C261.076 421.382 261.458 421.302 261.864 421.382C262.122 421.462 264.129 422.198 264.265 421.946C263.826 421.818 263.428 421.622 263.072 421.358C264.23 420.42 264.992 419.921 266.059 421.276C266.193 421.446 265.732 422.059 265.869 422.281C266.378 423.11 267.426 423.769 268.137 424.444C268.432 423.512 267.746 421.179 269.382 421.264C270.688 421.332 271.682 424.183 271.23 425.07C271.749 424.558 274.85 424.05 275.436 424.209C277.091 424.661 276.626 426.04 278.663 424.02C280.051 424.883 278.827 425.21 279.077 426.262C279.444 426.331 279.791 426.25 280.12 426.018C279.874 430.489 283.537 427.073 285.915 427.756C286.849 428.024 287.088 428.978 288.09 429.257C288.62 429.404 289.21 429.056 289.725 429.141C290.138 429.088 290.548 429.022 290.956 428.944C291.473 428.711 291.716 428.971 291.684 429.727C292.515 430.115 292.201 430.267 293.172 430.342C293.798 430.391 294.374 429.804 295.085 429.904C296.312 430.078 296.15 430.926 296.934 431.369C297.64 431.769 298.435 431.756 299.304 431.679C299.747 431.639 300.99 431.125 301.14 431.124C302.068 431.112 301.565 430.934 302.679 431.652C303.547 432.213 303.911 432.576 304.977 432.834C306.198 433.129 308.366 433.774 309.188 432.978C310.298 434.478 311.168 433.377 312.633 433.477C313.383 433.528 313.502 433.791 314.17 433.896C315.252 434.066 316.601 433.919 317.752 434.251C319.566 434.776 319.77 435.04 321.623 435.111C321.958 434.993 322.292 434.875 322.626 434.757C322.726 435.26 322.989 435.67 323.415 435.988C324.452 436.184 325.133 435.713 325.988 435.196C326.625 436.984 328.693 437.14 330.461 437.375C333.314 437.755 336.043 437.962 338.794 438.807C341.118 439.52 343.446 440.321 345.681 441.235C347.649 442.038 349.505 443.241 351.731 442.676C356.774 441.397 361.661 436.734 365.88 434.056C370.877 430.885 376.266 428.272 381.488 425.421C402.275 414.07 424.236 404.468 444.732 392.695C455.921 386.267 466.304 378.63 478.321 373.43C476.61 379.798 473.698 386.263 474.224 392.93C474.436 395.617 475.314 398.791 477.628 400.666C480.487 402.986 483.672 401.509 486.407 399.852C492.268 396.302 496.176 391.123 500.562 386.259C505.75 380.506 509.774 374.324 513.583 367.767C514.496 368.921 513.802 370.855 513.815 372.134C513.833 373.767 514.322 375.341 515.162 376.799C517.332 380.561 521.462 381.473 525.193 378.896C532.374 373.935 536.542 365.099 540.389 357.984C542.584 361.662 545.699 366.292 550.969 363.665C555.318 361.497 557.873 356.654 559.203 352.551C563.087 340.576 561.856 328.378 562.453 316.103Z" fill="#232323"/>
<path fill-rule="evenodd" clip-rule="evenodd" d="M555.858 244.173C555.362 243.088 555.144 243.265 556.056 242.213C556.767 242.844 556.198 243.365 555.858 244.173ZM577.836 309.853C576.441 306.281 577.302 302.402 576.456 298.739C576.067 297.058 575.453 295.427 575.232 293.716C575.134 292.956 574.383 289.538 574.894 289C573.321 288.142 573.316 287.507 572.953 285.824C573.513 285.289 573.443 284.832 572.741 284.452C572.282 283.952 571.823 283.452 571.364 282.952C573.371 283.836 572.184 281.574 571.979 280.27C571.817 279.239 571.708 278.165 571.327 277.177C570.857 275.963 569.814 275.349 571.985 275.349C571.27 274.617 570.202 273.861 569.846 272.965C569.334 271.675 570.178 269.97 569.135 268.831C568.553 268.195 565.552 267.946 566.079 266.573C566.346 265.874 567.563 266.396 567.939 265.906C569.418 263.98 565.051 263.181 564.837 262.362C564.56 261.3 566.137 261.062 566.234 260.069C566.328 259.097 564.65 257.499 564.207 256.63C563.603 256.762 562.94 257.623 562.249 257.212C562.117 257.134 562.314 253.768 562.157 253.322C562.003 252.882 561.687 251.717 561.574 251.501C561.126 250.645 559.845 250.228 559.642 249.216C559.52 248.613 562.146 247.699 559.134 247.67C560.216 245.953 558.234 244.909 557.513 243.442C556.586 241.555 556.039 239.517 555.086 237.62C554.16 235.777 553.125 234.027 551.79 232.397C550.581 230.921 550.059 229.502 549.093 227.943C548.9 227.806 548.707 227.669 548.513 227.532C547.708 227.637 547.449 227.307 547.738 226.54C547.122 225.718 546.664 224.841 546.12 223.982C545.489 222.984 544.637 222.17 543.985 221.2C543.119 219.913 542.863 218.462 541.884 217.172C540.682 215.584 539.329 214.184 538.213 212.536C536.816 210.473 535.269 209.19 533.511 207.592C532.674 206.831 532.573 204.93 531.548 203.849C530.431 202.672 529.329 202.353 528.555 200.808C527.548 198.798 526.07 197.838 524.631 196.101C523.445 194.667 522.865 193.02 521.558 191.634C520.434 190.443 519.157 189.355 517.957 188.226C516.442 186.8 515.323 185.067 513.746 183.711C513.974 183.907 512.374 182.765 512.454 182.801C512.1 182.639 510.958 182.508 511.124 182.596C508.744 181.336 505.761 176.723 502.18 179.167C500.295 180.453 501.199 182.81 502.515 184.091C503.08 184.641 506.015 187.352 506.649 186.209C507.334 187.083 509.443 191.308 511.196 190.098C511.018 191.542 511.946 191.062 512.559 192.039C512.963 192.683 512.767 192.999 513.06 194.004C513.869 196.768 516.955 199.467 518.599 201.878C522.69 207.876 527.202 213.565 531.297 219.57C535.199 225.294 539.57 230.724 543.313 236.525C547.572 243.12 552.877 249.346 556.085 256.457C556.193 256.696 557.084 257.074 557.305 257.433C557.691 258.057 557.608 259.135 557.856 259.841C558.717 262.29 560.112 264.701 561.702 266.729C563.097 268.509 563.198 270.927 564.158 273.015C565.511 275.958 566.941 278.869 568.255 281.826C570.302 286.429 571.688 290.841 573.103 295.646C574.019 298.76 574.748 301.873 575.04 305.088C575.309 308.046 575.375 311.126 576.589 313.926C577.418 312.773 578.394 311.28 577.836 309.853Z" fill="#232323"/>
<path fill-rule="evenodd" clip-rule="evenodd" d="M109.688 373.22C108.218 372.953 106.834 372.596 106.522 371.075C106.309 371.792 106.096 372.509 105.882 373.226C107.673 373.591 109.464 373.957 111.255 374.322C110.837 373.659 110.531 373.374 109.688 373.22Z" fill="#232323"/>
<path fill-rule="evenodd" clip-rule="evenodd" d="M113.634 123.574C113.746 123.145 113.89 122.725 114.068 122.315C114.189 122.714 114.782 123.579 114.437 123.957C113.997 124.435 113.553 124.164 113.634 123.574ZM120.844 111.217C121.327 111.409 122.371 111.446 122.97 111.608C121.416 112.812 121.142 112.458 119.133 112.318C119.043 111.099 119.593 110.721 120.844 111.217ZM107.372 141.387C107.58 141.393 107.789 141.397 107.999 141.402C108.011 140.871 107.996 140.341 107.952 139.811C110.071 140.229 108.871 136.892 108.206 136.201C110.273 136.263 111.28 130.367 111.935 129.231C112.516 128.222 113.175 127.832 113.6 126.602C113.972 125.525 114.374 124.556 114.911 123.538C116.143 121.196 117.76 119.07 117.462 116.341C118.506 118.388 119.425 116.344 120.087 115.365C121.154 113.787 123.758 111.774 124.035 109.901C124.279 108.251 122.919 108.164 123.722 106.634C124.534 105.086 125.202 105.241 126.624 104.746C127.57 104.416 127.758 104.816 128.426 103.74C128.859 103.044 128.706 102.524 129.26 101.953C129.489 102.132 129.749 102.207 130.04 102.176C130.49 101.641 130.785 101.046 130.925 100.389C131.292 99.5022 131.469 98.688 132.022 97.8435C132.545 97.0436 133.475 94.9034 133.968 94.5177C134.491 94.108 137.459 94.3163 137.446 94.3311C138.671 92.9424 136.422 91.5588 139.537 91.8515C138.922 90.8199 141.082 89.5395 141.709 88.9655C143.275 87.5329 143.4 86.8699 143.731 85.068C143.899 84.1494 142.803 84.2555 144.272 84.0461C144.879 83.96 145.462 84.6595 145.9 84.5568C147.835 84.1049 145.811 84.1911 146.345 83.4807C146.513 83.2553 147.374 82.3458 147.366 82.3555C147.324 82.4012 147.559 81.5642 147.755 81.3491C148.124 81.3205 148.489 81.2623 148.847 81.1745C149.028 80.8435 149.189 80.5046 149.328 80.1577C150.729 79.1056 152.824 78.6349 153.792 77.4789C154.419 76.7315 154.231 75.9994 155.041 75.2543C155.812 74.5445 156.831 75.0586 156.984 73.4553C157.178 71.4155 154.746 70.5078 153.751 72.5664C151.053 69.5726 139.775 80.5566 138.473 81.9915C132.813 88.221 127.251 94.6044 122.609 101.493C118.086 108.205 114.374 115.267 111.473 122.671C110.073 126.24 109.222 129.793 108.367 133.486C108.08 134.722 105.936 140.232 106.829 141.465C107.009 141.439 107.19 141.413 107.372 141.387Z" fill="#232323"/>
<path fill-rule="evenodd" clip-rule="evenodd" d="M552.824 294.152C553.777 293.579 553.777 293.579 553.944 292.496C552.666 292.706 552.666 292.706 552.824 294.152Z" fill="#232323"/>
<path fill-rule="evenodd" clip-rule="evenodd" d="M82.9669 366.97C82.979 366.969 82.9879 366.972 82.9948 366.978C82.9745 366.954 82.9008 366.884 82.9669 366.97Z" fill="#232323"/>
<path fill-rule="evenodd" clip-rule="evenodd" d="M82.3272 367.55C82.6217 368.124 83.0948 368.267 83.7472 367.977C84.0044 368.308 81.5165 365.911 82.3272 367.55Z" fill="#232323"/>
<path fill-rule="evenodd" clip-rule="evenodd" d="M125.349 105.834C123.856 108.472 125.726 106.553 125.63 107.41C125.693 106.847 125.952 106.045 125.349 105.834Z" fill="#232323"/>
<path fill-rule="evenodd" clip-rule="evenodd" d="M368.051 146.642C368.698 151.369 375.878 149.133 377.493 146.274C378.669 144.192 381.639 135.965 378.443 134.227C376.075 132.938 375.568 138.491 374.984 139.732C374.006 141.809 373.241 140.337 371.066 140.87C368.665 141.458 367.784 144.681 368.051 146.642Z" fill="#232323"/>
<path fill-rule="evenodd" clip-rule="evenodd" d="M360.206 137.988C362.773 138.502 365.289 138.237 367.111 136.411C368.121 135.4 369.464 133.395 367.647 132.416C365.999 131.53 364.131 133.605 362.397 133.176C360.037 132.592 361.252 130.313 360.443 128.808C357.468 130.351 355.809 137.108 360.206 137.988Z" fill="#232323"/>
<path fill-rule="evenodd" clip-rule="evenodd" d="M362.868 149.926C360.394 149.921 360.373 152.662 361.665 153.837C362.901 154.961 366.026 156.099 367.701 155.225C371.006 153.499 364.87 150.104 362.868 149.926Z" fill="#232323"/>
<path fill-rule="evenodd" clip-rule="evenodd" d="M218.922 258.925C219.451 259.156 221.007 260.345 221.664 259.809C220.738 258.968 219.811 258.128 218.885 257.287C218.373 257.793 218.022 258.532 218.922 258.925Z" fill="#232323"/>
<path fill-rule="evenodd" clip-rule="evenodd" d="M207.231 138.672C206.968 138.849 206.705 139.026 206.442 139.202C207.329 139.868 207.307 140.066 208.201 139.436C207.936 139.12 207.613 138.866 207.231 138.672Z" fill="#232323"/>
<path fill-rule="evenodd" clip-rule="evenodd" d="M374.903 295.529C374.405 294.725 373.466 296.208 372.831 296.45C371.797 296.842 370.949 294.765 371.246 297.254C368.909 296.29 367.491 298.501 365.984 299.653C363.855 301.28 361.252 302.163 359.832 304.474C366.516 305.882 373.859 300.691 378.843 297.282C379.657 296.725 383.722 293.916 380.967 293.644C379.84 293.533 375.739 296.882 374.903 295.529Z" fill="#232323"/>
<path fill-rule="evenodd" clip-rule="evenodd" d="M372.92 290.655C374.23 289.726 371.406 289.641 370.959 289.544C370.998 290.283 371.035 291.021 371.074 291.76C371.706 291.415 372.322 291.046 372.92 290.655Z" fill="#232323"/>
<path fill-rule="evenodd" clip-rule="evenodd" d="M368.002 293.754C368.393 293.533 369.484 292.846 368.742 292.334C368.071 292.718 367.592 293.346 367.487 294.062C367.658 293.959 367.83 293.856 368.002 293.754Z" fill="#232323"/>
<path fill-rule="evenodd" clip-rule="evenodd" d="M259.751 233.84C258.914 234.135 258.54 234.603 258.628 235.244C259.913 235.007 259.668 233.912 259.751 233.84Z" fill="#232323"/>
<path fill-rule="evenodd" clip-rule="evenodd" d="M529.615 65.7613C537.834 71.008 547.262 74.5923 555.851 79.3175C558 80.5003 564.698 82.9559 564.633 85.1497C564.595 86.4325 562.583 88.0409 561.701 88.9298C560.191 90.4527 558.771 91.9915 557.378 93.6025C551 100.98 544.994 108.427 538.082 115.433C537.041 116.487 533.906 121.52 532.894 119.02C532.435 117.887 532.813 116.613 531.617 115.557C531.002 115.013 528.624 114.713 529.317 113.546C529.778 113.732 530.24 113.919 530.703 114.105C530.344 113.172 530.37 112.15 529.832 111.269C529.498 110.721 528.845 110.462 528.618 109.845C528.305 108.992 528.836 108.002 528.747 107.123C528.659 106.247 528.154 105.419 527.853 104.592C526.064 99.6924 525.422 94.7528 524.507 89.6972C523.601 84.6947 522.189 79.8489 521.635 74.7907C521.05 69.4481 520.333 64.1163 519.375 58.8164C521.084 59.0318 522.397 60.7 523.605 61.6431C525.504 63.1253 527.566 64.4533 529.615 65.7613ZM523.172 117.485C522.78 117.209 522.473 116.868 522.252 116.465C526.28 114.672 523.849 117.732 523.172 117.485ZM520.722 113.66C518.967 114.095 517.705 114.184 516.351 113.534C516.223 113.473 516.371 112.998 516.139 112.901C515.937 112.816 515.628 112.921 515.454 112.842C514.865 112.572 513.833 113.163 513.732 112.131C515.973 111.515 518.177 110.377 520.543 110.185C523.831 109.92 523.679 112.928 520.722 113.66ZM513.029 107.713C510.633 108.217 508.66 109.393 506.114 109.086C503.725 108.798 501.648 107.684 499.763 106.401C504.479 105.201 509.423 104.985 514.135 103.824C515.669 103.447 517.684 102.451 519.338 102.852C521.174 103.298 521.29 104.844 521.841 106.251C518.901 106.726 515.939 107.102 513.029 107.713ZM498.045 101.744C495.743 102.238 493.39 103.318 491.466 101.453C491.155 101.152 490.883 101.453 490.92 100.526C490.958 99.5481 491.946 98.9183 492.795 98.5741C494.792 97.765 497.591 98.2881 499.711 98.169C503.094 97.9799 506.537 97.3481 509.883 96.8616C512.2 96.5251 514.592 95.7778 516.96 95.9252C518.788 96.0391 520.994 97.4393 518.33 98.4607C515.903 99.3914 512.265 99.2487 509.637 99.6517C505.751 100.247 501.879 100.92 498.045 101.744ZM495.796 92.0116C495.945 92.1482 496.095 92.2848 496.244 92.4213C496.219 92.4162 497.126 91.756 497.366 91.7369C498.533 91.6457 499.707 91.7179 500.876 91.6586C503.569 91.5221 506.283 91.1005 508.927 90.6362C511.082 90.2579 513.276 89.606 515.494 89.7693C517.414 89.9106 517.616 90.2641 517.741 91.9292C512.841 91.9292 507.793 91.8364 502.976 92.7687C499.841 93.3753 496.385 95.1821 494.815 91.9251C495.142 91.9539 495.469 91.9828 495.796 92.0116ZM498.86 84.9622C500.075 85.7939 503.388 84.4107 504.845 84.2726C506.426 84.1221 507.914 83.966 509.447 83.6119C510.806 83.2976 515.302 81.7278 516.345 83.229C517.943 85.5291 511.472 85.9511 510.446 86.065C506.143 86.5427 501.679 86.9664 497.493 87.9806C497.948 86.9746 498.404 85.9686 498.86 84.9622ZM504.762 77.15C505.076 78.2131 514.806 74.2955 514.984 77.1428C515.12 79.3273 505.357 80.4157 503.601 80.224C504.013 79.2181 505.106 78.3172 504.762 77.15ZM508.029 70.4674C508.236 68.3231 508.556 68.3354 510.469 68.1334C511.929 67.9793 513.935 67.2104 513.555 69.5481C513.23 71.5497 507.821 72.6314 508.029 70.4674ZM511.507 63.0892C511.967 61.9379 513.003 63.4875 513.025 64.073C513.083 65.6309 511.769 65.2938 510.504 65.2938C510.856 64.5662 511.191 63.8303 511.507 63.0892ZM527.521 54.4473C527.263 54.168 525.815 54.0613 525.402 53.9257C524.388 53.5918 524.532 52.8801 523.235 53.582C523.17 53.5233 523.294 52.9955 523.223 52.9713C523.188 52.959 522.279 52.6508 521.983 52.4807C521.271 52.0705 520.628 51.669 519.974 51.1542C519.277 50.6074 518.58 49.8138 517.785 49.3783C517.449 49.1948 517.175 48.9346 516.771 48.8784C515.722 48.7331 516.023 49.3896 515.106 49.52C514.541 49.6004 514.13 49.0078 513.391 49.2634C512.753 49.484 512.382 50.2884 512.098 50.7672C511.064 52.5096 510.266 54.3849 509.254 56.1459C504.079 65.1506 498.196 73.8136 493.182 82.9023C490.767 87.2807 488.248 91.6895 486.548 96.3426C485.323 99.6986 482.555 104.601 484.936 107.954C486.667 110.393 490.134 111.445 492.899 112.624C497.061 114.396 500.897 116.713 505.104 118.432C510.121 120.482 514.993 122.625 519.884 124.914C521.969 125.89 523.851 127.296 525.93 128.221C527.201 128.786 529.165 127.821 529.579 129.117C531.172 127.383 533.752 128.539 535.595 127.318C536.679 126.599 537.472 125.184 538.376 124.299C539.733 122.973 541.206 121.742 542.59 120.439C548.084 115.262 553.157 109.871 558.156 104.31C562.93 99.0008 568.508 93.9844 572.541 88.1723C574.143 85.8651 574.433 83.4455 573.376 80.8966C572.604 79.0372 570.745 76.2296 568.089 77.4607C569.096 75.958 565.212 74.3532 564.034 74.0594C564.016 74.0553 563.783 75.2097 563.455 75.1808C563.572 75.1911 562.467 72.6231 561.982 72.2938C560.542 71.3142 558.789 70.1711 557.218 69.3646C555.776 68.6251 554.255 68.2587 552.858 67.431C551.166 66.4281 549.612 65.2387 547.913 64.2425C546.272 63.2809 544.443 62.144 542.63 61.4828C541.058 60.9093 539.646 60.7969 538.231 59.8569C536.481 58.6938 534.955 57.9048 532.936 57.1034C531.19 56.4102 528.77 55.8047 527.521 54.4473Z" fill="#232323"/>
<path fill-rule="evenodd" clip-rule="evenodd" d="M113.338 274.32C113.677 273.608 114.014 272.896 114.353 272.185C114.772 273.426 114.889 274.043 113.338 274.32ZM113.789 277.608C113.055 277.726 113.344 275.666 113.344 275.307C114.611 275.949 113.562 276.719 113.789 277.608ZM112.644 271.666C113.27 271.335 113.896 271.005 114.521 270.674C113.65 272.118 113.992 271.216 114.351 272.181C113.694 272.35 113.055 272.153 112.644 271.666ZM108.937 282.955C106.591 290.568 99.1426 296.572 91.2751 299.682C86.7541 301.469 82.3094 301.916 77.4272 301.717C75.5442 301.64 73.3285 301.093 71.5164 301.194C70.1211 301.273 70.1841 301.327 69.0284 302.384C68.5171 301.541 68.8874 300.95 67.8619 300.46C66.5822 299.848 66.0509 300.56 65.4162 301.408C64.5855 300.637 64.2455 300.235 63.1691 299.778C63.2029 299.792 62.1387 299.756 62.1822 299.768C61.9898 299.715 60.8323 299.049 60.4699 298.928C58.9827 298.428 57.2631 298.223 55.8909 297.507C54.6904 296.882 53.7018 295.126 52.3283 296.475C52.3271 294.221 48.9333 293.286 47.3427 292.105C44.8571 290.26 42.881 287.529 41.6418 284.886C40.3204 282.068 39.8793 279.367 39.2609 276.463C38.8289 274.434 35.9997 271.501 37.6987 269.453C38.1035 270.312 37.9135 271.191 38.5857 271.97C39.1908 270.926 39.5235 269.759 39.797 268.617C39.9313 268.058 40.7094 266.417 40.6211 265.93C40.4414 264.932 39.0619 264.878 39.8267 263.656C41.4131 265.2 42.6934 262.488 41.4948 261.407C40.9031 262.004 40.6858 262.682 40.413 263.422C38.8531 260.605 43.1702 261.512 42.2257 258.969C43.8013 258.697 44.707 258.342 45.306 256.949C45.9722 255.399 45.4821 255.062 46.9947 254.037C47.5151 253.685 48.9866 253.179 49.2558 252.6C49.7768 251.481 48.4511 251.149 49.6122 250.1C50.0043 250.716 51.5327 251.935 52.3694 250.775C52.537 250.544 51.8334 250.38 52.3452 249.847C53.1034 249.059 53.9517 248.286 55.2338 248.451C54.2185 246.18 60.7059 246.001 62.3674 245.465C64.0325 244.928 65.4453 244.576 67.2108 244.451C68.9746 244.327 69.0623 243.864 70.5556 242.914C70.682 244.274 71.0475 243.975 72.1275 244.215C72.3871 243.816 72.6533 243.771 72.9256 244.08C73.1966 244.311 73.5282 244.419 73.9191 244.406C74.512 244.434 75.1848 244.365 75.8062 244.376C77.265 244.401 78.7698 244.293 80.2007 244.32C80.5698 244.265 80.9147 244.15 81.2378 243.975C81.3727 244.203 81.5083 244.431 81.6426 244.659C82.4007 244.744 82.4594 245.594 83.3918 244.664C83.6677 245.846 84.4603 245.231 85.2977 245.551C86.0613 245.844 86.1829 246.312 86.8878 246.638C87.3513 246.975 87.848 247.019 88.3793 246.773C88.8845 247.108 89.3976 247.433 89.9179 247.749C90.8769 248.233 92.0072 248.53 93.0176 248.913C93.6898 249.161 94.3578 249.419 95.0203 249.686C95.0403 250.402 95.3991 250.655 96.0961 250.444C96.726 250.916 96.9033 250.897 97.5144 251.7C98.8987 253.52 100.127 254.933 101.876 256.56C109.476 263.63 111.811 273.626 108.937 282.955ZM111.269 252.89C107.838 248.779 102.981 244.071 98.6168 241.475C96.4047 240.158 93.2996 237.795 90.5944 237.099C89.953 236.934 89.2893 236.923 88.6588 236.75C88.1717 236.616 87.9067 236.169 87.3513 236.088C86.9628 236.032 86.9199 236.81 86.5072 236.738C85.6444 236.588 85.0974 235.822 84.4882 235.343C83.1794 237.36 82.4691 233.967 80.5474 236.248C78.2603 233.04 72.8874 233.741 69.2353 233.903C68.1523 233.951 67.6434 234.296 66.6832 234.551C65.7896 234.789 65.7012 234.728 64.7253 234.721C62.2948 234.704 60.1371 234.978 57.8906 235.933C54.1162 237.537 50.6517 240.036 47.0667 241.97C43.0601 244.13 39.4485 246.88 36.3833 250.04C25.3023 261.467 22.3394 278.144 31.175 291.391C45.2092 312.429 81.4102 314.677 101.923 300.402C117.772 289.373 123.803 267.904 111.269 252.89Z" fill="#232323"/>
<path fill-rule="evenodd" clip-rule="evenodd" d="M584.326 135.864C582.256 135.182 579.696 133.849 577.396 134.303C574.951 134.786 573.967 136.994 572.189 138.321C567.357 141.931 564.542 136.551 561.887 133.603C559.379 130.819 556.319 130.143 552.781 131.854C551.371 132.536 545.432 135.66 546.468 137.662C547.213 139.102 550.147 137.809 551.148 137.495C553.32 136.813 555.338 136.216 557.56 137.21C561.729 139.074 562.81 144.186 567.853 144.983C573.068 145.808 573.239 141.333 576.96 139.648C579.455 138.519 581.193 140.518 583.6 140.119C585.894 139.74 586.954 136.731 584.326 135.864Z" fill="#232323"/>
<path fill-rule="evenodd" clip-rule="evenodd" d="M542.225 153.9C544.069 154.261 545.273 151.035 546.427 150.217C548.342 148.861 551.663 148.587 553.613 149.953C557.421 152.617 556.108 158.37 561.531 159.869C566.377 161.21 568.66 155.454 572.739 154.021C575.111 153.187 577.715 152.642 576.789 149.652C576.15 147.584 574.267 147.053 572.219 147.847C568.701 149.211 567.506 154.767 563.335 154.866C559.019 154.969 558.551 149.358 556.698 146.915C553.873 143.19 548.067 142.29 544.767 145.852C543.771 146.926 538.712 153.214 542.225 153.9Z" fill="#232323"/>
<path fill-rule="evenodd" clip-rule="evenodd" d="M467.911 31.6576C467.416 32.722 462.797 32.3635 462.695 31.1087C462.545 29.2336 468.771 29.8079 467.911 31.6576ZM472.818 30.9614C475.436 31.1532 479.737 32.7569 482.261 31.7879C486.111 30.3089 482.067 28.0391 480.002 27.3606C477.9 26.6705 474.769 27.0372 473.688 25.0552C472.875 23.5646 474.884 19.4033 472.392 20.0722C469.776 20.774 470.537 26.7349 466.432 24.7256C464.474 23.7668 465.273 17.9264 461.994 20.9103C461.096 21.7266 461.018 23.2254 459.83 23.8339C458.617 24.4555 457.095 23.8079 455.815 23.862C452.425 24.0053 451.345 26.8651 454.78 27.9994C456.051 28.4195 460.843 28.9321 457.94 30.8058C456.111 31.9859 452.048 29.5091 450.477 31.5638C448.318 34.3859 454.101 34.4497 455.654 35.294C458.287 36.7236 456.113 40.0632 456.322 42.4413C456.644 46.0749 458.985 45.3155 459.835 42.2405C460.556 39.6314 459.662 35.8758 464.024 36.9127C471.126 38.6014 460.074 46.7328 465.277 48.8134C468.594 50.1402 469.064 42.9683 469.321 41.7333C470.275 37.1752 473.114 38.2388 477.416 38.3787C482.441 38.5418 483.654 35.1898 478.332 34.2297C476.635 33.9233 474.299 34.3105 472.825 33.3353C471.952 32.759 470.753 30.8106 472.818 30.9614Z" fill="#232323"/>
<path fill-rule="evenodd" clip-rule="evenodd" d="M48.526 169.861C45.0545 171.368 41.5831 172.875 38.1123 174.382C36.9648 172.168 35.0262 166.118 32.1155 165.346C27.4038 164.095 30.4041 170.69 31.2173 172.197C31.8853 173.436 33.4348 175.355 33.0586 176.831C32.554 178.819 29.4428 179.524 27.8142 180.55C23.7842 183.09 23.8161 188.424 29.6525 186.163C32.9553 184.884 37.0446 181.336 39.576 185.364C40.7448 187.223 43.5141 197.607 46.4065 190.816C48.1962 186.612 39.5821 182.243 43.8287 178.687C45.1959 177.542 46.7964 177.445 48.162 176.788C51.4602 175.198 49.6006 172.262 48.526 169.861Z" fill="#232323"/>
<path fill-rule="evenodd" clip-rule="evenodd" d="M20.6327 332.56C16.5662 331.247 9.76309 331.53 8.75691 336.267C8.33589 338.249 9.15589 340.346 10.6743 341.787C12.4351 343.457 15.2393 343.612 15.0896 340.703C14.9855 338.691 12.8614 336.942 16.5958 336.537C18.9198 336.284 22.3571 337.852 22.4726 340.167C22.734 345.385 12.7178 345.794 9.0267 344.891C1.70073 343.101 3.69105 336.182 8.72196 333.024C10.0215 332.207 13.7506 330.951 13.9208 329.256C14.1473 327.008 11.0649 327.467 9.55411 327.763C-1.55112 329.943 -3.97158 346.72 7.63218 349.883C12.9017 351.318 20.3227 349.836 23.4985 345.532C26.476 341.497 26.5163 334.459 20.6327 332.56Z" fill="#232323"/>
</svg>
